<svg xmlns="http://www.w3.org/2000/svg" xmlns:xlink="http://www.w3.org/1999/xlink" width="1118.869" height="665.275" viewBox="0 0 1118.869 665.275">
  <defs>
    <clipPath id="clip-path">
      <path id="Path_5421" data-name="Path 5421" d="M19.28,0H346.3a19.28,19.28,0,0,1,19.28,19.28V207.071a19.28,19.28,0,0,1-19.28,19.28H19.28A19.28,19.28,0,0,1,0,207.071V19.28A19.28,19.28,0,0,1,19.28,0Z" transform="translate(0 225.074) rotate(-38)" fill="#505d6f"/>
    </clipPath>
    <clipPath id="clip-path-2">
      <rect id="Rectangle_248" data-name="Rectangle 248" width="365.58" height="226.35" rx="20" transform="translate(0 0)" fill="#d5e8e5"/>
    </clipPath>
    <clipPath id="clip-path-3">
      <path id="Path_5399" data-name="Path 5399" d="M365.011,189.968c-40.928-.1-158.587-12.2-187.329-104.265S44.226.1,44.226.1H0V205.923H365.011Z" transform="translate(0 224.723) rotate(-38)" fill="#b3c6c5" opacity="0.17"/>
    </clipPath>
    <clipPath id="clip-path-4">
      <path id="path5144" d="M.121,0,34.058,4.239l-.123,1.034L0,1.02Z" transform="translate(0 0)" fill="#334051"/>
    </clipPath>
    <clipPath id="clip-path-5">
      <path id="path5166" d="M.121,0,34.072,4.111l-.121,1.037L0,1.018Z" transform="translate(0 0)" fill="#334051"/>
    </clipPath>
    <clipPath id="clip-path-6">
      <path id="path5188" d="M.121,0,34.089,3.988l-.123,1.035L0,1.018Z" transform="translate(0 0)" fill="#334051"/>
    </clipPath>
  </defs>
  <g id="Group_6905" data-name="Group 6905" transform="translate(-18669 24999.244)">
    <path id="Path_5464" data-name="Path 5464" d="M227.77-100.487c151.338-49.626,204.064-13.29,334.539,32.137C739.836,25.034,710.476,291.046,700.093,315c-158.339-.545-659.737-.838-701.706,0-.125-44.911,0-60.858,0-96.642C-1.613,81.779,76.433-50.861,227.77-100.487Z" transform="translate(18893.543 -24674.494)" fill="#e0edfc"/>
    <path id="Path_5473" data-name="Path 5473" d="M-579.091,849.9l3.038,27.349H-770.126L-768.194,850S-765.951,849.21-579.091,849.9Z" transform="translate(20222.164 -25236.744)" fill="#5e91cd"/>
    <path id="Union_65" data-name="Union 65" d="M18.8,68.116c-3.843-3.823-9.387-8.224-14.063-15.8C2.547,48.823-1.624,39.066.667,36.286,2.5,33.754,4.4,38.6,4.4,38.6a49.833,49.833,0,0,0,5.665,9.719c4.028,5.574,13.274,13.109,13.274,13.109L12.87,48.9S2.687,30.2,5.594,25.4s6.573,6.509,9.94,12.794S30.89,56.885,30.89,56.885s-11.568-14.9-15.094-23.7-3.26-15.594-2.673-18.726,5.324-9.228,6.5.341c.073.408.155.823.19.977,3.361,15.454,19.5,36.764,19.5,36.764s-9.587-20.231-11.171-24.3c-1.561-4-5.489-19.793-1.748-25.2S34.042.2,33.614,4.912C34.9,30.309,46.949,41.2,46.949,41.2l3.437,4.654c.694-2.105,1.173-3.546,1.173-3.546s-3.005-15.255,1.607-19.943S59.158,32.1,59.158,32.1L62.823,62.7l16.05,21.732L57.48,102.809S22.64,71.94,18.8,68.116Z" transform="matrix(0.999, 0.035, -0.035, 0.999, 19224.039, -24708.852)" fill="#fff" stroke="#334051" stroke-width="2"/>
    <path id="Union_66" data-name="Union 66" d="M104.965,142.521c-10.447-1.61-26.376-16.535-26.376-16.535L0,25.329S19.647-.187,19.894,0c9.747,12.079,57.565,39.832,91.474,68.314l.752.634c14.055-18.322,49.257-64,51.721-65.07.343-.149.609.593.847,2.355-.017,17.355.259,62.793,1.586,97.581-10.288,9.854-22.226,23.112-33.562,30.671a2.642,2.642,0,0,1-.614.666c-4.516,3.29-13.843,7.669-23.083,7.669A26.588,26.588,0,0,1,104.965,142.521Z" transform="translate(19275.572 -24630.215)" fill="#c8d3e0" stroke="#334051" stroke-width="2"/>
    <g id="Rectangle_640" data-name="Rectangle 640" transform="translate(19198.803 -24758.707) rotate(-38)" fill="#c6d6eb" stroke="#334051" stroke-width="2">
      <rect width="61.066" height="24.426" rx="12.213" stroke="none"/>
      <rect x="1" y="1" width="59.066" height="22.426" rx="11.213" fill="none"/>
    </g>
    <g id="Group_6903" data-name="Group 6903" transform="translate(19047.938 -24999.244)">
      <path id="Path_5422" data-name="Path 5422" d="M19.28,0H346.3a19.28,19.28,0,0,1,19.28,19.28V207.071a19.28,19.28,0,0,1-19.28,19.28H19.28A19.28,19.28,0,0,1,0,207.071V19.28A19.28,19.28,0,0,1,19.28,0Z" transform="translate(0 225.074) rotate(-38)" fill="#505d6f"/>
      <g id="Mask_Group_8" data-name="Mask Group 8" transform="translate(0 0)" clip-path="url(#clip-path)">
        <path id="Path_5401" data-name="Path 5401" d="M0,0S7.885,73.693,67.384,79.8s57.47,66.254,58.786,85.5,8.888,34.341,30.857,39.264c12.1,2.712,37.018,4.9,63.616-15.022,8.656-6.541,18.469-17.284,25.291-11.055,3.5,3.546,5.174,9.188,3.229,16.188-2.052,7.391-7.974,16.4-7.671,24.744.653,18,13.617,34.235,13.4,41.324" transform="translate(25.02 167.924) rotate(-38)" fill="none" stroke="#fff" stroke-width="2" opacity="0.199"/>
        <path id="Path_5402" data-name="Path 5402" d="M232.935,0c-3.911,3.373-23.047,12.793-50.715,15.633-59.5,6.107-57.844,70.2-59.16,89.453s-8.888,34.341-30.857,39.263c-12.1,2.712-37.018,4.9-63.616-15.022-8.656-6.541-18.469-17.284-25.291-11.055-3.5,3.546-4.163,8.783-2.218,15.784,7.625,18.415,4.128,30.5,3.491,33.362" transform="matrix(0.719, 0.695, -0.695, 0.719, 133.222, 121.2)" fill="none" stroke="#fff" stroke-width="2" opacity="0.199"/>
        <path id="Path_5403" data-name="Path 5403" d="M0,0S1.97,53.386,48.419,60.055,106.533,91.7,109.747,96.449c2.153,3.182,8.045,20.312,21.307,34.048a60.2,60.2,0,0,0,24.928,15.229c28.224,8.326,47.2-18.414,43.77-41.092-1.446-11.392-21.718-48.309-50.2-12.111-4.114,5.273-6.215,12.281-15.066,10.908-14.206-.871-12.019-32.971-18.028-58.105S99.388,16.346,99.172,0" transform="translate(39.666 156.804) rotate(-38)" fill="none" stroke="#fff" stroke-width="2" opacity="0.199"/>
        <g id="Path_5404" data-name="Path 5404" transform="translate(223.621 159.752) rotate(-82)" fill="none" opacity="0.199">
          <path d="M29.177,0C39.859,0,43.765,8.476,40.555,18.816S27.121,32.992,19.189,33.878,0,31.113,0,20.431,18.5,0,29.177,0Z" stroke="none"/>
          <path d="M 29.17733192443848 2 C 26.77009201049805 2 23.85452270507812 2.548870086669922 20.74580192565918 3.587270736694336 C 17.58716201782227 4.642349243164062 14.44290161132812 6.133630752563477 11.6529426574707 7.899900436401367 C 8.721431732177734 9.755779266357422 6.292503356933594 11.85453033447266 4.628730773925781 13.96925926208496 C 2.884433746337891 16.18633079528809 2.000003814697266 18.36043930053711 2.000003814697266 20.43119049072266 C 2.000003814697266 24.15618133544922 3.5733642578125 27.10030937194824 6.676383972167969 29.1817798614502 C 9.351581573486328 30.97628021240234 13.05867195129395 32.00547027587891 16.84713172912598 32.00547027587891 C 17.56976318359375 32.00547027587891 18.28310203552246 31.96669960021973 18.96733283996582 31.89024925231934 C 23.7746524810791 31.35309028625488 35.31543350219727 28.94599914550781 38.64502334594727 18.22270011901855 C 39.45728302001953 15.60671043395996 39.77759170532227 13.15555953979492 39.59704208374023 10.93730926513672 C 39.42580413818359 8.833271026611328 38.81002044677734 7.04833984375 37.76682281494141 5.632089614868164 C 36.93192291259766 4.498640060424805 35.82358169555664 3.615810394287109 34.47259140014648 3.00813102722168 C 32.98539352416992 2.339179992675781 31.20381164550781 2 29.17733192443848 2 M 29.17733192443848 0 C 39.85873413085938 0 43.76546096801758 8.476299285888672 40.55506134033203 18.81576919555664 C 37.34466171264648 29.15521049499512 27.12103271484375 32.99161148071289 19.18943214416504 33.87788009643555 C 11.25779724121094 34.76416015625 0 31.11260032653809 3.814697265625e-06 20.43119049072266 C 3.814697265625e-06 9.749790191650391 18.49593162536621 0 29.17733192443848 0 Z" stroke="none" fill="#fff"/>
        </g>
        <g id="Path_5405" data-name="Path 5405" transform="translate(89.694 364.589) rotate(-65)" fill="none" opacity="0.318">
          <path d="M29.177,0C39.859,0,43.765,8.476,40.555,18.816S29.97,35.142,22.039,36.028,0,31.113,0,20.431,18.5,0,29.177,0Z" stroke="none"/>
          <path d="M 29.17734146118164 1.999996185302734 C 26.77010154724121 1.999996185302734 23.85452270507812 2.548866271972656 20.74580192565918 3.587265014648438 C 17.58717155456543 4.642345428466797 14.44291305541992 6.133626937866211 11.6529426574707 7.899896621704102 C 8.721431732177734 9.755777359008789 6.292503356933594 11.85452651977539 4.628730773925781 13.96925735473633 C 2.884433746337891 16.18632698059082 2.000003814697266 18.36043739318848 2.000003814697266 20.43118667602539 C 2.000003814697266 22.39128684997559 2.577102661132812 24.26017761230469 3.715263366699219 25.9859561920166 C 4.780040740966797 27.60046768188477 6.305423736572266 29.06502723693848 8.249042510986328 30.33896636962891 C 10.04302215576172 31.51481628417969 12.15431213378906 32.48785781860352 14.35467147827148 33.15289688110352 C 16.44042205810547 33.78330612182617 18.52076148986816 34.11651611328125 20.37077331542969 34.11651611328125 C 20.87724304199219 34.11651611328125 21.3636531829834 34.09086608886719 21.81647300720215 34.04026794433594 C 25.42165184020996 33.63742828369141 28.85061264038086 32.05955505371094 31.73263168334961 29.47723770141602 C 34.83046340942383 26.70154571533203 37.22073364257812 22.80978775024414 38.64502334594727 18.22268676757812 C 39.45728302001953 15.6067066192627 39.77759170532227 13.15554618835449 39.59704208374023 10.93730735778809 C 39.42580413818359 8.833267211914062 38.81002044677734 7.048336029052734 37.76682281494141 5.632085800170898 C 36.93192291259766 4.498638153076172 35.82358169555664 3.615806579589844 34.47259140014648 3.008125305175781 C 32.98540115356445 2.339176177978516 31.20382308959961 1.999996185302734 29.17734146118164 1.999996185302734 M 29.17734146118164 -3.814697265625e-06 C 39.85873413085938 -3.814697265625e-06 43.76546096801758 8.476306915283203 40.55506134033203 18.81575584411621 C 37.34467315673828 29.15521621704102 29.97019195556641 35.14162826538086 22.03857231140137 36.02789688110352 C 14.10696792602539 36.91417694091797 3.814697265625e-06 31.11259841918945 3.814697265625e-06 20.43118667602539 C 3.814697265625e-06 9.749786376953125 18.49593162536621 -3.814697265625e-06 29.17734146118164 -3.814697265625e-06 Z" stroke="none" fill="#fff"/>
        </g>
        <g id="Path_5406" data-name="Path 5406" transform="matrix(0.927, 0.375, -0.375, 0.927, 148.902, 182.634)" fill="none" opacity="0.199">
          <path d="M23.32.539c8.926-1.712,18.414.53,15.945,8.482-1.207,3.888-.523,11.727-16.8,16.452C5.154,30.851,0,21.653,0,17.456,0,9.241,14.394,2.251,23.32.539Z" stroke="none"/>
          <path d="M 28.82374572753906 2.000003814697266 C 27.16370391845703 2.000003814697266 25.43876457214355 2.169355392456055 23.69684410095215 2.503364562988281 C 21.53112411499023 2.918634414672852 19.09185409545898 3.647245407104492 16.64273452758789 4.610445022583008 C 14.02160453796387 5.641294479370117 11.51143455505371 6.899114608764648 9.38360595703125 8.2479248046875 C 4.622215270996094 11.26613426208496 2.000003814697266 14.53616428375244 2.000003814697266 17.45564460754395 C 2.000003814697266 18.58161544799805 2.579376220703125 20.47475433349609 4.212203979492188 22.1045036315918 C 6.185585021972656 24.07416534423828 9.185874938964844 25.11526489257812 12.88869476318359 25.11526489257812 C 15.53497505187988 25.11526489257812 18.55778503417969 24.5930347442627 21.87316513061523 23.56306457519531 L 21.90886497497559 23.55234527587891 C 25.04929351806641 22.64055442810059 27.7143440246582 21.55099487304688 29.83000564575195 20.31392478942871 C 31.58259391784668 19.28914451599121 33.00728607177734 18.13224411010742 34.06451416015625 16.87534332275391 C 35.96369552612305 14.61749458312988 36.45038604736328 12.35944557189941 36.87979507446289 10.3672046661377 C 37.02736282348633 9.682575225830078 37.16674423217773 9.035903930664062 37.35562515258789 8.427604675292969 C 37.85306549072266 6.82551383972168 37.75105285644531 5.579935073852539 37.04373550415039 4.619693756103516 C 35.83544540405273 2.979324340820312 32.76255416870117 2.000003814697266 28.82374572753906 2.000003814697266 M 28.82374954223633 0 C 35.66239929199219 0 41.22380447387695 2.71424674987793 39.26566314697266 9.020673751831055 C 38.05832290649414 12.90905380249023 38.74234390258789 20.74752426147461 22.46651458740234 25.47302436828613 C 5.154018402099609 30.85138320922852 3.814697265625e-06 21.65334701538086 3.814697265625e-06 17.45564460754395 C 3.814697265625e-06 9.240964889526367 14.39413452148438 2.25068473815918 23.32021522521973 0.5391445159912109 C 25.1671028137207 0.1850109100341797 27.03961563110352 0 28.82374954223633 0 Z" stroke="none" fill="#fff"/>
        </g>
        <g id="Path_5407" data-name="Path 5407" transform="matrix(-0.819, -0.574, 0.574, -0.819, 130.141, 393.512)" fill="none" opacity="0.199">
          <path d="M146.565,45.57c6.353,0,13.917.45,12.007,6.6s2.512,20.595-4.841,22.763c-10.222,1.615-12.492-8.635-26.055-14.6S98.834,50.964,87.2,51.3c-19.4.784-43.517,15.887-67.8,4.23-6.273-3.014-14.371-9.415-17.5-16.872C-3.705,25.335,4.905,7.728,4.759,5.21,3.346-18.338,141.463,45.57,146.565,45.57Z" stroke="none"/>
          <path d="M 151.6518249511719 73.10314178466797 C 152.1698150634766 73.10314178466797 152.7175140380859 73.06111145019531 153.2817840576172 72.97814178466797 C 154.2033233642578 72.67636108398438 155.2902221679688 71.93613433837891 155.8347778320312 69.21432495117188 C 156.3108215332031 66.8349609375 156.2117767333984 63.76266479492188 156.1159973144531 60.79150390625 C 156.0040283203125 57.31761932373047 155.8982696533203 54.03639221191406 156.661865234375 51.57714080810547 C 157.1074981689453 50.14191436767578 156.72705078125 49.62541580200195 156.6020202636719 49.4556884765625 C 156.2634582519531 48.99602890014648 155.37939453125 48.36457443237305 153.0903930664062 47.96661758422852 C 151.0820922851562 47.61743927001953 148.6647491455078 47.57036972045898 146.5649566650391 47.57036972045898 C 145.12890625 47.57036972045898 141.0289764404297 45.93986892700195 124.1157760620117 38.96548461914062 C 107.8947067260742 32.27650451660156 85.67920684814453 23.11564254760742 64.50611877441406 15.49907398223877 C 39.60595703125 6.541755676269531 22.3456859588623 2.000005483627319 13.20475387573242 2.000005483627319 C 9.183435440063477 2.000005483627319 7.745889663696289 2.888846397399902 7.246912479400635 3.418664693832397 C 7.008162498474121 3.672164678573608 6.69748067855835 4.121278285980225 6.755844593048096 5.094551086425781 C 6.809571743011475 6.021096706390381 6.462935447692871 7.160664558410645 5.603480815887451 9.877800941467285 C 4.606662750244141 13.02916431427002 3.100253582000732 17.79157447814941 2.397412538528442 22.87968826293945 C 1.582571625709534 28.7784595489502 2.033821582794189 33.82548141479492 3.738776206970215 37.8808479309082 C 5.057435512542725 41.01880264282227 7.504435062408447 44.26821136474609 10.81523036956787 47.27780151367188 C 13.68393516540527 49.88550567626953 17.04007148742676 52.17514038085938 20.26459503173828 53.72455215454102 C 26.15725326538086 56.55282211303711 32.41875457763672 57.92766571044922 39.40693664550781 57.92766571044922 C 48.57868576049805 57.92766571044922 57.55634307861328 55.57859802246094 66.23843383789062 53.30686950683594 C 73.59295654296875 51.38250732421875 80.53961944580078 49.56486892700195 87.12143707275391 49.29900741577148 L 87.14493560791016 49.29818725585938 C 87.68384552001953 49.28275680541992 88.23882293701172 49.27493667602539 88.79445648193359 49.27493667602539 C 100.5242080688477 49.27493667602539 115.3603668212891 52.72261810302734 128.4811553955078 58.49750518798828 C 134.62841796875 61.20311737060547 138.6107025146484 64.78566741943359 141.810546875 67.66429901123047 C 145.3203887939453 70.82182312011719 147.8562774658203 73.10316467285156 151.6517944335938 73.10314178466797 L 151.6518249511719 73.10314178466797 M 151.6518249511719 75.10313415527344 C 143.1259765625 75.10321044921875 140.2686920166016 65.87071990966797 127.6754837036133 60.32805252075195 C 114.1120071411133 54.35832595825195 98.83457946777344 50.96414184570312 87.20216369628906 51.29737091064453 C 67.79802703857422 52.08121109008789 43.68556976318359 67.18428802490234 19.39918518066406 55.52761840820312 C 13.12654876708984 52.51359558105469 5.028571605682373 46.11259460449219 1.894958019256592 38.65566635131836 C -3.705269336700439 25.33502769470215 4.905208110809326 7.728437423706055 4.759208202362061 5.210323810577393 C 4.539504051208496 1.548118114471436 7.70036506652832 8.137096301652491e-06 13.20476055145264 8.137096301652491e-06 C 43.09440612792969 8.137096301652491e-06 142.2562103271484 45.57036972045898 146.5649566650391 45.57036972045898 C 152.9183654785156 45.57036972045898 160.4815063476562 46.02018737792969 158.5719146728516 52.17021179199219 C 156.6623229980469 58.32025527954102 161.0834197998047 72.76473236083984 153.7305297851562 74.93280029296875 C 152.9993133544922 75.04832458496094 152.3087005615234 75.10313415527344 151.6518249511719 75.10313415527344 Z" stroke="none" fill="#fff"/>
        </g>
        <path id="Path_5408" data-name="Path 5408" d="M2.964.072s4.806,11.03,0,19.888S-2.417,39.512,13.739,44.916,43.769,47.931,57.855,58.5s15.009,1.493,14.114-7.084S67.092,32.5,46.5,38.428,7.485,21.526,20.36,0" transform="translate(55.986 132.433) rotate(-38)" fill="none" stroke="#fff" stroke-width="2" opacity="0.199"/>
        <path id="Path_5409" data-name="Path 5409" d="M44.063,98.492C26.876,102.022.907,98.079.03,83.41-.9,70.6,19.648,65.389,29.638,48.274,36.091,37.218,39.284,18.023,35.309,0" transform="translate(244.949 -3.709) rotate(-38)" fill="none" stroke="#fff" stroke-width="2" opacity="0.199"/>
        <path id="Path_5410" data-name="Path 5410" d="M3.787,52.27A17.567,17.567,0,0,0,1.8,45.8c-4.806-8.858-.155-22.288,16-27.692S41.554,14.666,55.639,4.1,71.7,5.764,70.8,14.341s-4.877,18.913-25.472,12.99C29.227,22.7,14.454,35.648,14.941,51.986" transform="translate(276.953 235.284) rotate(-38)" fill="none" stroke="#fff" stroke-width="2" opacity="0.199"/>
        <path id="Path_5411" data-name="Path 5411" d="M0,0S30.538,22.75,10.036,55.626c-.3.482-.714,1.119-1.148,1.76-4.592,5.579.537,20.99,18,10.841s18.843-15.066,20.83-23.751S50.922,18.2,77.863,29.255,113.431,18.358,112.727,0" transform="translate(140.261 77.844) rotate(-38)" fill="none" stroke="#fff" stroke-width="2" opacity="0.199"/>
        <path id="Path_5412" data-name="Path 5412" d="M0,83.354s24.868-34.5,4.366-67.373c-.3-.482-.714-1.119-1.148-1.76-4.592-5.579.537-20.989,18-10.841s21.666,27.448,23.656,34.4c1.017,4.446,5.362,13.951,13.2,17.493,7.113,3.217,20.348,1.781,30.2-2.2,20.194-8.16,25.16,11.925,24.457,30.283" transform="translate(138.619 304.069) rotate(-38)" fill="none" stroke="#fff" stroke-width="2" opacity="0.199"/>
        <path id="Path_5413" data-name="Path 5413" d="M135.229,0s.505,25.687-10.912,37.055-22.844,16-39.3,8.91c-.275-.1-13.343-6.635-15.983,3.957s5.745,18.623,14.977,30.486,15.644,34.506,2.537,57.294c-12.779,22.218-35.726,37.961-73.684,15.71-.853-.5-6.925-5.345-11.064,0s-2,30.56,15.653,36.5,36.386,4.406,54.965-12.749,27.588-18.425,36.457-13.435,23.478,20.713,10.768,43.872,14.453,47.24,35.785,53.119" transform="translate(135.349 81.549) rotate(-38)" fill="none" stroke="#fff" stroke-width="2" opacity="0.199"/>
        <path id="Path_5414" data-name="Path 5414" d="M14.756,2.1C8.57,6.121-4.012,24.19,1.261,51.625S20.616,81.736,36.873,79.977s46.061-1.09,61.689,6.275,25.986-11.018,2.176-17.914c-11.221-3.6-21.537-4.034-27.071-7.8-5.9-4.013-8.341-13.226-9.133-19.551C63.049,29.12,60.782,23.238,52.348,19.56c-8.307-3.623-21.18,4.893-5.567,25.093.189.285,8.583,11.616-6.977,18.545s-27.624-4.04-23.667-24.352S29.27,19.736,28.426,9.6,20.942-1.926,14.756,2.1Z" transform="translate(64.578 228.083) rotate(-38)" fill="none" stroke="#fff" stroke-width="2" opacity="0.199"/>
        <path id="Path_5415" data-name="Path 5415" d="M99.82,87.892c6.186-4.024,18.767-22.092,13.5-49.527S93.96,8.254,77.7,10.013,32.226,8.935,16.6,1.57s-26.57,13.187-2.76,20.082c11.221,3.6,21.537,4.034,27.071,7.8C46.81,33.464,49.25,42.677,50.041,49c1.486,11.868,3.753,17.75,12.186,21.428,8.307,3.623,23.459-2.8,7.845-23-.189-.285-8.408-12.257,7.152-19.186s25.17,2.589,21.213,22.9S85.306,70.254,86.15,80.393,93.634,91.916,99.82,87.892Z" transform="translate(306.607 105.376) rotate(-12)" fill="none" stroke="#fff" stroke-width="2" opacity="0.204"/>
        <path id="Path_5416" data-name="Path 5416" d="M0,45.675s25.067,1.266,36.385-17.09S32.946,1.692,31.254,0" transform="translate(-15.378 199.344) rotate(-38)" fill="none" stroke="#fff" stroke-width="2" opacity="0.199"/>
        <path id="Path_5417" data-name="Path 5417" d="M1.129,8.488c3.832,7.825,16.484-.459,13.707,16.738-1.174,7.274.477,16.151,6.5,18.729,7.784,3.333,21.486-1.3,27.443-2.76,10.324-2.538,6.788-13.513,6.683-13.948C41.061-4.935,4.449.318,4.449.318S-2.7.663,1.129,8.488Z" transform="translate(171.979 276.308) rotate(-38)" fill="none" stroke="#fff" stroke-width="2" opacity="0.199"/>
        <g id="Path_5418" data-name="Path 5418" transform="translate(265.847 250.341) rotate(-38)" fill="none" opacity="0.199">
          <path d="M5.993,0C10.4,0,18.2.519,18.887,6.317S10.4,16.129,5.993,16.129,0,12.738,0,8.747,1.582,0,5.993,0Z" stroke="none"/>
          <path d="M 5.993327140808105 2.000003814697266 C 5.19245719909668 2.000003814697266 4.019827842712402 2.192353248596191 3.086757659912109 3.855573654174805 C 2.396106719970703 5.08668327331543 1.999998092651367 6.869663238525391 1.999998092651367 8.747333526611328 C 1.999998092651367 10.47807312011719 2.338336944580078 11.87398338317871 2.978437423706055 12.78416347503662 C 3.384378433227539 13.36138343811035 4.138567924499512 14.12876319885254 5.993327140808105 14.12876319885254 C 7.276747703552246 14.12876319885254 9.15828800201416 13.67117309570312 10.90367794036865 12.93456363677979 C 12.90010738372803 12.09201335906982 14.58785820007324 10.96607398986816 15.65602779388428 9.764153480529785 C 16.60722732543945 8.693833351135254 17.02592849731445 7.61323356628418 16.90047836303711 6.552363395690918 C 16.77108764648438 5.458173751831055 16.2476978302002 3.887393951416016 13.20951747894287 2.883453369140625 C 11.41051769256592 2.288983345031738 9.050087928771973 2.000003814697266 5.993327140808105 2.000003814697266 M 5.993327140808105 3.814697265625e-06 C 10.40444755554199 3.814697265625e-06 18.20098686218262 0.519343376159668 18.88663673400879 6.317493438720703 C 19.5722770690918 12.11565399169922 10.40444755554199 16.12876319885254 5.993327140808105 16.12876319885254 C 1.582206726074219 16.12876319885254 -1.9073486328125e-06 12.73834323883057 -1.9073486328125e-06 8.747333526611328 C -1.9073486328125e-06 4.75632381439209 1.582206726074219 3.814697265625e-06 5.993327140808105 3.814697265625e-06 Z" stroke="none" fill="#fff"/>
        </g>
        <g id="Path_5419" data-name="Path 5419" transform="translate(199.205 341.892) rotate(-38)" fill="none" opacity="0.318">
          <path d="M15.833,0c11.653,0,32.25,1.372,34.062,16.69s-22.408,25.92-34.062,25.92S0,33.652,0,23.109,4.18,0,15.833,0Z" stroke="none"/>
          <path d="M 15.83324813842773 1.999996185302734 C 11.28694534301758 1.999996185302734 7.739978790283203 4.213539123535156 5.290885925292969 8.579128265380859 C 4.197887420654297 10.52744674682617 3.356536865234375 12.84645843505859 2.790218353271484 15.47175788879395 C 2.273258209228516 17.8682975769043 1.999996185302734 20.50914764404297 1.999996185302734 23.10882759094238 C 1.999996185302734 28.36085891723633 3.100517272949219 32.70177841186523 5.182567596435547 35.66230773925781 C 6.283527374267578 37.22778701782227 7.678855895996094 38.43561935424805 9.329807281494141 39.25225830078125 C 11.15006637573242 40.15264892578125 13.3381462097168 40.60918807983398 15.83327865600586 40.60918807983398 C 19.69140625 40.60918807983398 25.01818656921387 39.33315658569336 30.08243751525879 37.19581604003906 C 35.79772567749023 34.78369903564453 40.67459869384766 31.50941848754883 43.81467819213867 27.97614669799805 C 46.97765731811523 24.41708755493164 48.35511779785156 20.69878768920898 47.90880584716797 16.92452812194824 C 47.53575897216797 13.76981735229492 46.27657699584961 11.19717788696289 44.05931854248047 9.059616088867188 C 42.09808731079102 7.168876647949219 39.36209869384766 5.634708404541016 35.92734527587891 4.499706268310547 C 30.83707618713379 2.817657470703125 24.26423645019531 1.999996185302734 15.83324813842773 1.999996185302734 M 15.83324813842773 -3.814697265625e-06 C 27.48660659790039 -3.814697265625e-06 48.08362579345703 1.371997833251953 49.89496612548828 16.68965721130371 C 51.70620727539062 32.00637435913086 27.48745536804199 42.60918807983398 15.83327484130859 42.60918807983398 C 15.83256149291992 42.60918807983398 15.83396911621094 42.60918807983398 15.83325576782227 42.60918807983398 C 4.179908752441406 42.60918807983398 -3.814697265625e-06 33.65232849121094 -3.814697265625e-06 23.10882759094238 C -3.814697265625e-06 12.56531715393066 4.179908752441406 -3.814697265625e-06 15.83324813842773 -3.814697265625e-06 Z" stroke="none" fill="#fff"/>
        </g>
        <path id="Path_5420" data-name="Path 5420" d="M42.085,0s5.806,37.383-25.029,58.448S1.578,105.841,28.461,114.033s19.119,17.949,40.876,28.2" transform="translate(223.036 12.718) rotate(-38)" fill="none" stroke="#fff" stroke-width="2" opacity="0.199"/>
      </g>
      <g id="Mask_Group_5" data-name="Mask Group 5" transform="translate(0 227.517) rotate(-38)" clip-path="url(#clip-path-2)">
        <path id="Path_5263" data-name="Path 5263" d="M365.011,189.968c-40.928-.1-158.587-12.2-187.329-104.265S44.226.1,44.226.1H0V205.923H365.011Z" transform="translate(0 20.428)" fill="#334051"/>
        <g id="Mask_Group_7" data-name="Mask Group 7" transform="translate(138.707 -156.381) rotate(38)" clip-path="url(#clip-path-3)">
          <path id="Path_5379" data-name="Path 5379" d="M0,0S7.885,73.693,67.384,79.8s57.47,66.254,58.786,85.5,8.888,34.341,30.857,39.264c12.1,2.712,37.018,4.9,63.616-15.022,8.656-6.541,18.469-17.284,25.291-11.055,3.5,3.546,5.174,9.188,3.229,16.188-2.052,7.391-7.974,16.4-7.671,24.744.653,18,13.617,34.235,13.4,41.324" transform="matrix(0.788, -0.616, 0.616, 0.788, 2.042, 198.762)" fill="none" stroke="#fff" stroke-width="2" opacity="0.17"/>
          <path id="Path_5380" data-name="Path 5380" d="M232.935,0c-3.911,3.373-23.047,12.793-50.715,15.633-59.5,6.107-57.844,70.2-59.16,89.453s-8.888,34.341-30.857,39.263c-12.1,2.712-37.018,4.9-63.616-15.022-8.656-6.541-18.469-17.284-25.291-11.055-3.5,3.546-4.163,8.783-2.218,15.784,7.625,18.415,4.128,30.5,3.491,33.362" transform="matrix(0.719, 0.695, -0.695, 0.719, 110.244, 152.037)" fill="none" stroke="#fff" stroke-width="2" opacity="0.17"/>
          <path id="Path_5381" data-name="Path 5381" d="M0,0S1.97,53.386,48.419,60.055,106.533,91.7,109.747,96.449c2.153,3.182,8.045,20.312,21.307,34.048a60.2,60.2,0,0,0,24.928,15.229c28.224,8.326,47.2-18.414,43.77-41.092-1.446-11.392-21.718-48.309-50.2-12.111-4.114,5.273-6.215,12.281-15.066,10.908-14.206-.871-12.019-32.971-18.028-58.105S99.388,16.346,99.172,0" transform="matrix(0.788, -0.616, 0.616, 0.788, 16.689, 187.642)" fill="none" stroke="#fff" stroke-width="2" opacity="0.17"/>
          <g id="Path_5382" data-name="Path 5382" transform="translate(200.644 190.589) rotate(-82)" fill="none" opacity="0.17">
            <path d="M29.177,0C39.859,0,43.765,8.476,40.555,18.816S27.121,32.992,19.189,33.878,0,31.113,0,20.431,18.5,0,29.177,0Z" stroke="none"/>
            <path d="M 29.17733192443848 2 C 26.77009201049805 2 23.85452270507812 2.548870086669922 20.74580192565918 3.587270736694336 C 17.58716201782227 4.642349243164062 14.44290161132812 6.133630752563477 11.6529426574707 7.899900436401367 C 8.721431732177734 9.755779266357422 6.292503356933594 11.85453033447266 4.628730773925781 13.96925926208496 C 2.884433746337891 16.18633079528809 2.000003814697266 18.36043930053711 2.000003814697266 20.43119049072266 C 2.000003814697266 24.15618133544922 3.5733642578125 27.10030937194824 6.676383972167969 29.1817798614502 C 9.351581573486328 30.97628021240234 13.05867195129395 32.00547027587891 16.84713172912598 32.00547027587891 C 17.56976318359375 32.00547027587891 18.28310203552246 31.96669960021973 18.96733283996582 31.89024925231934 C 23.7746524810791 31.35309028625488 35.31543350219727 28.94599914550781 38.64502334594727 18.22270011901855 C 39.45728302001953 15.60671043395996 39.77759170532227 13.15555953979492 39.59704208374023 10.93730926513672 C 39.42580413818359 8.833271026611328 38.81002044677734 7.04833984375 37.76682281494141 5.632089614868164 C 36.93192291259766 4.498640060424805 35.82358169555664 3.615810394287109 34.47259140014648 3.00813102722168 C 32.98539352416992 2.339179992675781 31.20381164550781 2 29.17733192443848 2 M 29.17733192443848 0 C 39.85873413085938 0 43.76546096801758 8.476299285888672 40.55506134033203 18.81576919555664 C 37.34466171264648 29.15521049499512 27.12103271484375 32.99161148071289 19.18943214416504 33.87788009643555 C 11.25779724121094 34.76416015625 0 31.11260032653809 3.814697265625e-06 20.43119049072266 C 3.814697265625e-06 9.749790191650391 18.49593162536621 0 29.17733192443848 0 Z" stroke="none" fill="#fff"/>
          </g>
          <g id="Path_5383" data-name="Path 5383" transform="translate(66.716 395.427) rotate(-65)" fill="none" opacity="0.17">
            <path d="M29.177,0C39.859,0,43.765,8.476,40.555,18.816S29.97,35.142,22.039,36.028,0,31.113,0,20.431,18.5,0,29.177,0Z" stroke="none"/>
            <path d="M 29.17734146118164 1.999996185302734 C 26.77010154724121 1.999996185302734 23.85452270507812 2.548866271972656 20.74580192565918 3.587265014648438 C 17.58717155456543 4.642345428466797 14.44291305541992 6.133626937866211 11.6529426574707 7.899896621704102 C 8.721431732177734 9.755777359008789 6.292503356933594 11.85452651977539 4.628730773925781 13.96925735473633 C 2.884433746337891 16.18632698059082 2.000003814697266 18.36043739318848 2.000003814697266 20.43118667602539 C 2.000003814697266 22.39128684997559 2.577102661132812 24.26017761230469 3.715263366699219 25.9859561920166 C 4.780040740966797 27.60046768188477 6.305423736572266 29.06502723693848 8.249042510986328 30.33896636962891 C 10.04302215576172 31.51481628417969 12.15431213378906 32.48785781860352 14.35467147827148 33.15289688110352 C 16.44042205810547 33.78330612182617 18.52076148986816 34.11651611328125 20.37077331542969 34.11651611328125 C 20.87724304199219 34.11651611328125 21.3636531829834 34.09086608886719 21.81647300720215 34.04026794433594 C 25.42165184020996 33.63742828369141 28.85061264038086 32.05955505371094 31.73263168334961 29.47723770141602 C 34.83046340942383 26.70154571533203 37.22073364257812 22.80978775024414 38.64502334594727 18.22268676757812 C 39.45728302001953 15.6067066192627 39.77759170532227 13.15554618835449 39.59704208374023 10.93730735778809 C 39.42580413818359 8.833267211914062 38.81002044677734 7.048336029052734 37.76682281494141 5.632085800170898 C 36.93192291259766 4.498638153076172 35.82358169555664 3.615806579589844 34.47259140014648 3.008125305175781 C 32.98540115356445 2.339176177978516 31.20382308959961 1.999996185302734 29.17734146118164 1.999996185302734 M 29.17734146118164 -3.814697265625e-06 C 39.85873413085938 -3.814697265625e-06 43.76546096801758 8.476306915283203 40.55506134033203 18.81575584411621 C 37.34467315673828 29.15521621704102 29.97019195556641 35.14162826538086 22.03857231140137 36.02789688110352 C 14.10696792602539 36.91417694091797 3.814697265625e-06 31.11259841918945 3.814697265625e-06 20.43118667602539 C 3.814697265625e-06 9.749786376953125 18.49593162536621 -3.814697265625e-06 29.17734146118164 -3.814697265625e-06 Z" stroke="none" fill="#fff"/>
          </g>
          <g id="Path_5384" data-name="Path 5384" transform="matrix(0.927, 0.375, -0.375, 0.927, 125.925, 213.472)" fill="none" opacity="0.17">
            <path d="M23.32.539c8.926-1.712,18.414.53,15.945,8.482-1.207,3.888-.523,11.727-16.8,16.452C5.154,30.851,0,21.653,0,17.456,0,9.241,14.394,2.251,23.32.539Z" stroke="none"/>
            <path d="M 28.82374572753906 2.000003814697266 C 27.16370391845703 2.000003814697266 25.43876457214355 2.169355392456055 23.69684410095215 2.503364562988281 C 21.53112411499023 2.918634414672852 19.09185409545898 3.647245407104492 16.64273452758789 4.610445022583008 C 14.02160453796387 5.641294479370117 11.51143455505371 6.899114608764648 9.38360595703125 8.2479248046875 C 4.622215270996094 11.26613426208496 2.000003814697266 14.53616428375244 2.000003814697266 17.45564460754395 C 2.000003814697266 18.58161544799805 2.579376220703125 20.47475433349609 4.212203979492188 22.1045036315918 C 6.185585021972656 24.07416534423828 9.185874938964844 25.11526489257812 12.88869476318359 25.11526489257812 C 15.53497505187988 25.11526489257812 18.55778503417969 24.5930347442627 21.87316513061523 23.56306457519531 L 21.90886497497559 23.55234527587891 C 25.04929351806641 22.64055442810059 27.7143440246582 21.55099487304688 29.83000564575195 20.31392478942871 C 31.58259391784668 19.28914451599121 33.00728607177734 18.13224411010742 34.06451416015625 16.87534332275391 C 35.96369552612305 14.61749458312988 36.45038604736328 12.35944557189941 36.87979507446289 10.3672046661377 C 37.02736282348633 9.682575225830078 37.16674423217773 9.035903930664062 37.35562515258789 8.427604675292969 C 37.85306549072266 6.82551383972168 37.75105285644531 5.579935073852539 37.04373550415039 4.619693756103516 C 35.83544540405273 2.979324340820312 32.76255416870117 2.000003814697266 28.82374572753906 2.000003814697266 M 28.82374954223633 0 C 35.66239929199219 0 41.22380447387695 2.71424674987793 39.26566314697266 9.020673751831055 C 38.05832290649414 12.90905380249023 38.74234390258789 20.74752426147461 22.46651458740234 25.47302436828613 C 5.154018402099609 30.85138320922852 3.814697265625e-06 21.65334701538086 3.814697265625e-06 17.45564460754395 C 3.814697265625e-06 9.240964889526367 14.39413452148438 2.25068473815918 23.32021522521973 0.5391445159912109 C 25.1671028137207 0.1850109100341797 27.03961563110352 0 28.82374954223633 0 Z" stroke="none" fill="#fff"/>
          </g>
          <g id="Path_5385" data-name="Path 5385" transform="matrix(-0.819, -0.574, 0.574, -0.819, 107.163, 424.35)" fill="none" opacity="0.17">
            <path d="M146.565,45.57c6.353,0,13.917.45,12.007,6.6s2.512,20.595-4.841,22.763c-10.222,1.615-12.492-8.635-26.055-14.6S98.834,50.964,87.2,51.3c-19.4.784-43.517,15.887-67.8,4.23-6.273-3.014-14.371-9.415-17.5-16.872C-3.705,25.335,4.905,7.728,4.759,5.21,3.346-18.338,141.463,45.57,146.565,45.57Z" stroke="none"/>
            <path d="M 151.6518249511719 73.10314178466797 C 152.1698150634766 73.10314178466797 152.7175140380859 73.06111145019531 153.2817840576172 72.97814178466797 C 154.2033233642578 72.67636108398438 155.2902221679688 71.93613433837891 155.8347778320312 69.21432495117188 C 156.3108215332031 66.8349609375 156.2117767333984 63.76266479492188 156.1159973144531 60.79150390625 C 156.0040283203125 57.31761932373047 155.8982696533203 54.03639221191406 156.661865234375 51.57714080810547 C 157.1074981689453 50.14191436767578 156.72705078125 49.62541580200195 156.6020202636719 49.4556884765625 C 156.2634582519531 48.99602890014648 155.37939453125 48.36457443237305 153.0903930664062 47.96661758422852 C 151.0820922851562 47.61743927001953 148.6647491455078 47.57036972045898 146.5649566650391 47.57036972045898 C 145.12890625 47.57036972045898 141.0289764404297 45.93986892700195 124.1157760620117 38.96548461914062 C 107.8947067260742 32.27650451660156 85.67920684814453 23.11564254760742 64.50611877441406 15.49907398223877 C 39.60595703125 6.541755676269531 22.3456859588623 2.000005483627319 13.20475387573242 2.000005483627319 C 9.183435440063477 2.000005483627319 7.745889663696289 2.888846397399902 7.246912479400635 3.418664693832397 C 7.008162498474121 3.672164678573608 6.69748067855835 4.121278285980225 6.755844593048096 5.094551086425781 C 6.809571743011475 6.021096706390381 6.462935447692871 7.160664558410645 5.603480815887451 9.877800941467285 C 4.606662750244141 13.02916431427002 3.100253582000732 17.79157447814941 2.397412538528442 22.87968826293945 C 1.582571625709534 28.7784595489502 2.033821582794189 33.82548141479492 3.738776206970215 37.8808479309082 C 5.057435512542725 41.01880264282227 7.504435062408447 44.26821136474609 10.81523036956787 47.27780151367188 C 13.68393516540527 49.88550567626953 17.04007148742676 52.17514038085938 20.26459503173828 53.72455215454102 C 26.15725326538086 56.55282211303711 32.41875457763672 57.92766571044922 39.40693664550781 57.92766571044922 C 48.57868576049805 57.92766571044922 57.55634307861328 55.57859802246094 66.23843383789062 53.30686950683594 C 73.59295654296875 51.38250732421875 80.53961944580078 49.56486892700195 87.12143707275391 49.29900741577148 L 87.14493560791016 49.29818725585938 C 87.68384552001953 49.28275680541992 88.23882293701172 49.27493667602539 88.79445648193359 49.27493667602539 C 100.5242080688477 49.27493667602539 115.3603668212891 52.72261810302734 128.4811553955078 58.49750518798828 C 134.62841796875 61.20311737060547 138.6107025146484 64.78566741943359 141.810546875 67.66429901123047 C 145.3203887939453 70.82182312011719 147.8562774658203 73.10316467285156 151.6517944335938 73.10314178466797 L 151.6518249511719 73.10314178466797 M 151.6518249511719 75.10313415527344 C 143.1259765625 75.10321044921875 140.2686920166016 65.87071990966797 127.6754837036133 60.32805252075195 C 114.1120071411133 54.35832595825195 98.83457946777344 50.96414184570312 87.20216369628906 51.29737091064453 C 67.79802703857422 52.08121109008789 43.68556976318359 67.18428802490234 19.39918518066406 55.52761840820312 C 13.12654876708984 52.51359558105469 5.028571605682373 46.11259460449219 1.894958019256592 38.65566635131836 C -3.705269336700439 25.33502769470215 4.905208110809326 7.728437423706055 4.759208202362061 5.210323810577393 C 4.539504051208496 1.548118114471436 7.70036506652832 8.137096301652491e-06 13.20476055145264 8.137096301652491e-06 C 43.09440612792969 8.137096301652491e-06 142.2562103271484 45.57036972045898 146.5649566650391 45.57036972045898 C 152.9183654785156 45.57036972045898 160.4815063476562 46.02018737792969 158.5719146728516 52.17021179199219 C 156.6623229980469 58.32025527954102 161.0834197998047 72.76473236083984 153.7305297851562 74.93280029296875 C 152.9993133544922 75.04832458496094 152.3087005615234 75.10313415527344 151.6518249511719 75.10313415527344 Z" stroke="none" fill="#fff"/>
          </g>
          <path id="Path_5386" data-name="Path 5386" d="M2.964.072s4.806,11.03,0,19.888S-2.417,39.512,13.739,44.916,43.769,47.931,57.855,58.5s15.009,1.493,14.114-7.084S67.092,32.5,46.5,38.428,7.485,21.526,20.36,0" transform="matrix(0.788, -0.616, 0.616, 0.788, 33.009, 163.271)" fill="none" stroke="#fff" stroke-width="2" opacity="0.17"/>
          <path id="Path_5387" data-name="Path 5387" d="M44.063,98.492C26.876,102.022.907,98.079.03,83.41-.9,70.6,19.648,65.389,29.638,48.274,36.091,37.218,39.284,18.023,35.309,0" transform="matrix(0.788, -0.616, 0.616, 0.788, 221.972, 27.128)" fill="none" stroke="#fff" stroke-width="2" opacity="0.17"/>
          <path id="Path_5388" data-name="Path 5388" d="M3.787,52.27A17.567,17.567,0,0,0,1.8,45.8c-4.806-8.858-.155-22.288,16-27.692S41.554,14.666,55.639,4.1,71.7,5.764,70.8,14.341s-4.877,18.913-25.472,12.99C29.227,22.7,14.454,35.648,14.941,51.986" transform="matrix(0.788, -0.616, 0.616, 0.788, 253.976, 266.121)" fill="none" stroke="#fff" stroke-width="2" opacity="0.17"/>
          <path id="Path_5389" data-name="Path 5389" d="M0,0S30.538,22.75,10.036,55.626c-.3.482-.714,1.119-1.148,1.76-4.592,5.579.537,20.99,18,10.841s18.843-15.066,20.83-23.751S50.922,18.2,77.863,29.255,113.431,18.358,112.727,0" transform="matrix(0.788, -0.616, 0.616, 0.788, 117.284, 108.681)" fill="none" stroke="#fff" stroke-width="2" opacity="0.17"/>
          <path id="Path_5390" data-name="Path 5390" d="M0,83.354s24.868-34.5,4.366-67.373c-.3-.482-.714-1.119-1.148-1.76-4.592-5.579.537-20.989,18-10.841s21.666,27.448,23.656,34.4c1.017,4.446,5.362,13.951,13.2,17.493,7.113,3.217,20.348,1.781,30.2-2.2,20.194-8.16,25.16,11.925,24.457,30.283" transform="matrix(0.788, -0.616, 0.616, 0.788, 115.641, 334.907)" fill="none" stroke="#fff" stroke-width="2" opacity="0.17"/>
          <path id="Path_5391" data-name="Path 5391" d="M135.229,0s.505,25.687-10.912,37.055-22.844,16-39.3,8.91c-.275-.1-13.343-6.635-15.983,3.957s5.745,18.623,14.977,30.486,15.644,34.506,2.537,57.294c-12.779,22.218-35.726,37.961-73.684,15.71-.853-.5-6.925-5.345-11.064,0s-2,30.56,15.653,36.5,36.386,4.406,54.965-12.749,27.588-18.425,36.457-13.435,23.478,20.713,10.768,43.872,14.453,47.24,35.785,53.119" transform="matrix(0.788, -0.616, 0.616, 0.788, 112.372, 112.386)" fill="none" stroke="#fff" stroke-width="2" opacity="0.17"/>
          <path id="Path_5392" data-name="Path 5392" d="M14.756,2.1C8.57,6.121-4.012,24.19,1.261,51.625S20.616,81.736,36.873,79.977s46.061-1.09,61.689,6.275,25.986-11.018,2.176-17.914c-11.221-3.6-21.537-4.034-27.071-7.8-5.9-4.013-8.341-13.226-9.133-19.551C63.049,29.12,60.782,23.238,52.348,19.56c-8.307-3.623-21.18,4.893-5.567,25.093.189.285,8.583,11.616-6.977,18.545s-27.624-4.04-23.667-24.352S29.27,19.736,28.426,9.6,20.942-1.926,14.756,2.1Z" transform="matrix(0.788, -0.616, 0.616, 0.788, 41.6, 258.921)" fill="none" stroke="#fff" stroke-width="2" opacity="0.17"/>
          <path id="Path_5393" data-name="Path 5393" d="M99.82,87.892c6.186-4.024,18.767-22.092,13.5-49.527S93.96,8.254,77.7,10.013,32.226,8.935,16.6,1.57s-26.57,13.187-2.76,20.082c11.221,3.6,21.537,4.034,27.071,7.8C46.81,33.464,49.25,42.677,50.041,49c1.486,11.868,3.753,17.75,12.186,21.428,8.307,3.623,23.459-2.8,7.845-23-.189-.285-8.408-12.257,7.152-19.186s25.17,2.589,21.213,22.9S85.306,70.254,86.15,80.393,93.634,91.916,99.82,87.892Z" transform="translate(283.629 136.214) rotate(-12)" fill="none" stroke="#fff" stroke-width="2" opacity="0.17"/>
          <path id="Path_5394" data-name="Path 5394" d="M0,45.675s25.067,1.266,36.385-17.09S32.946,1.692,31.254,0" transform="matrix(0.788, -0.616, 0.616, 0.788, -38.355, 230.181)" fill="none" stroke="#fff" stroke-width="2" opacity="0.17"/>
          <path id="Path_5395" data-name="Path 5395" d="M1.129,8.488c3.832,7.825,16.484-.459,13.707,16.738-1.174,7.274.477,16.151,6.5,18.729,7.784,3.333,21.486-1.3,27.443-2.76,10.324-2.538,6.788-13.513,6.683-13.948C41.061-4.935,4.449.318,4.449.318S-2.7.663,1.129,8.488Z" transform="matrix(0.788, -0.616, 0.616, 0.788, 149.001, 307.146)" fill="none" stroke="#fff" stroke-width="2" opacity="0.17"/>
          <g id="Path_5396" data-name="Path 5396" transform="matrix(0.788, -0.616, 0.616, 0.788, 242.869, 281.179)" fill="none" opacity="0.17">
            <path d="M5.993,0C10.4,0,18.2.519,18.887,6.317S10.4,16.129,5.993,16.129,0,12.738,0,8.747,1.582,0,5.993,0Z" stroke="none"/>
            <path d="M 5.993327140808105 2.000003814697266 C 5.19245719909668 2.000003814697266 4.019827842712402 2.192353248596191 3.086757659912109 3.855573654174805 C 2.396106719970703 5.08668327331543 1.999998092651367 6.869663238525391 1.999998092651367 8.747333526611328 C 1.999998092651367 10.47807312011719 2.338336944580078 11.87398338317871 2.978437423706055 12.78416347503662 C 3.384378433227539 13.36138343811035 4.138567924499512 14.12876319885254 5.993327140808105 14.12876319885254 C 7.276747703552246 14.12876319885254 9.15828800201416 13.67117309570312 10.90367794036865 12.93456363677979 C 12.90010738372803 12.09201335906982 14.58785820007324 10.96607398986816 15.65602779388428 9.764153480529785 C 16.60722732543945 8.693833351135254 17.02592849731445 7.61323356628418 16.90047836303711 6.552363395690918 C 16.77108764648438 5.458173751831055 16.2476978302002 3.887393951416016 13.20951747894287 2.883453369140625 C 11.41051769256592 2.288983345031738 9.050087928771973 2.000003814697266 5.993327140808105 2.000003814697266 M 5.993327140808105 3.814697265625e-06 C 10.40444755554199 3.814697265625e-06 18.20098686218262 0.519343376159668 18.88663673400879 6.317493438720703 C 19.5722770690918 12.11565399169922 10.40444755554199 16.12876319885254 5.993327140808105 16.12876319885254 C 1.582206726074219 16.12876319885254 -1.9073486328125e-06 12.73834323883057 -1.9073486328125e-06 8.747333526611328 C -1.9073486328125e-06 4.75632381439209 1.582206726074219 3.814697265625e-06 5.993327140808105 3.814697265625e-06 Z" stroke="none" fill="#fff"/>
          </g>
          <g id="Path_5397" data-name="Path 5397" transform="matrix(0.788, -0.616, 0.616, 0.788, 176.227, 372.73)" fill="none" opacity="0.17">
            <path d="M15.833,0c11.653,0,32.25,1.372,34.062,16.69s-22.408,25.92-34.062,25.92S0,33.652,0,23.109,4.18,0,15.833,0Z" stroke="none"/>
            <path d="M 15.83324813842773 1.999996185302734 C 11.28694534301758 1.999996185302734 7.739978790283203 4.213539123535156 5.290885925292969 8.579128265380859 C 4.197887420654297 10.52744674682617 3.356536865234375 12.84645843505859 2.790218353271484 15.47175788879395 C 2.273258209228516 17.8682975769043 1.999996185302734 20.50914764404297 1.999996185302734 23.10882759094238 C 1.999996185302734 28.36085891723633 3.100517272949219 32.70177841186523 5.182567596435547 35.66230773925781 C 6.283527374267578 37.22778701782227 7.678855895996094 38.43561935424805 9.329807281494141 39.25225830078125 C 11.15006637573242 40.15264892578125 13.3381462097168 40.60918807983398 15.83327865600586 40.60918807983398 C 19.69140625 40.60918807983398 25.01818656921387 39.33315658569336 30.08243751525879 37.19581604003906 C 35.79772567749023 34.78369903564453 40.67459869384766 31.50941848754883 43.81467819213867 27.97614669799805 C 46.97765731811523 24.41708755493164 48.35511779785156 20.69878768920898 47.90880584716797 16.92452812194824 C 47.53575897216797 13.76981735229492 46.27657699584961 11.19717788696289 44.05931854248047 9.059616088867188 C 42.09808731079102 7.168876647949219 39.36209869384766 5.634708404541016 35.92734527587891 4.499706268310547 C 30.83707618713379 2.817657470703125 24.26423645019531 1.999996185302734 15.83324813842773 1.999996185302734 M 15.83324813842773 -3.814697265625e-06 C 27.48660659790039 -3.814697265625e-06 48.08362579345703 1.371997833251953 49.89496612548828 16.68965721130371 C 51.70620727539062 32.00637435913086 27.48745536804199 42.60918807983398 15.83327484130859 42.60918807983398 C 15.83256149291992 42.60918807983398 15.83396911621094 42.60918807983398 15.83325576782227 42.60918807983398 C 4.179908752441406 42.60918807983398 -3.814697265625e-06 33.65232849121094 -3.814697265625e-06 23.10882759094238 C -3.814697265625e-06 12.56531715393066 4.179908752441406 -3.814697265625e-06 15.83324813842773 -3.814697265625e-06 Z" stroke="none" fill="#fff"/>
          </g>
          <path id="Path_5398" data-name="Path 5398" d="M42.085,0s5.806,37.383-25.029,58.448S1.578,105.841,28.461,114.033s19.119,17.949,40.876,28.2" transform="matrix(0.788, -0.616, 0.616, 0.788, 200.058, 43.555)" fill="none" stroke="#fff" stroke-width="2" opacity="0.17"/>
        </g>
      </g>
      <g id="Rectangle_244" data-name="Rectangle 244" transform="translate(190.462 296.727) rotate(-38)" fill="#c6d6eb" stroke="#334051" stroke-width="2">
        <rect width="64.323" height="24.426" rx="12.213" stroke="none"/>
        <rect x="1" y="1" width="62.323" height="22.426" rx="11.213" fill="none"/>
      </g>
      <g id="Rectangle_246" data-name="Rectangle 246" transform="translate(313.789 166.275) rotate(-38)" fill="#c6d6eb" stroke="#334051" stroke-width="2">
        <rect width="54.552" height="13.027" rx="6.514" stroke="none"/>
        <rect x="1" y="1" width="52.552" height="11.027" rx="5.514" fill="none"/>
      </g>
      <g id="Rectangle_247" data-name="Rectangle 247" transform="translate(286.842 187.329) rotate(-38)" fill="#c6d6eb" stroke="#334051" stroke-width="2">
        <rect width="23.612" height="13.027" rx="6.514" stroke="none"/>
        <rect x="1" y="1" width="21.612" height="11.027" rx="5.514" fill="none"/>
      </g>
      <g id="Rectangle_245" data-name="Rectangle 245" transform="translate(257.83 244.093) rotate(-38)" fill="#c6d6eb" stroke="#334051" stroke-width="2">
        <rect width="146.558" height="24.426" rx="12.213" stroke="none"/>
        <rect x="1" y="1" width="144.558" height="22.426" rx="11.213" fill="none"/>
      </g>
      <g id="Group_6877" data-name="Group 6877" transform="translate(32.464 243.459) rotate(-38)">
        <g id="g5100" transform="matrix(-0.993, 0.122, -0.122, -0.993, 47.42, 42.76)">
          <path id="path5116" d="M11.562.047,35.405,2.713A8.058,8.058,0,0,1,42.43,11.7L39.557,35.969a7.991,7.991,0,0,1-8.923,7.043L6.846,39.9A8.036,8.036,0,0,1,.057,30.944L2.875,7.121A7.981,7.981,0,0,1,11.562.047" transform="translate(0 0)" fill="#334051"/>
        </g>
        <path id="path5096" d="M11.56.047,35.4,2.711a8.06,8.06,0,0,1,7.026,8.984L39.558,35.966a8,8,0,0,1-8.924,7.046L6.847,39.894A8.035,8.035,0,0,1,.057,30.941L2.873,7.122A7.98,7.98,0,0,1,11.56.047Z" transform="matrix(-0.993, 0.122, -0.122, -0.993, 47.421, 42.758)" fill="#c6d6eb"/>
        <g id="g5140" transform="matrix(-0.993, 0.122, -0.122, -0.993, 40.975, 16.791)">
          <g id="g5142" transform="translate(0 0)" clip-path="url(#clip-path-4)">
            <g id="g5148" transform="translate(0.001 0)">
              <path id="path5156" d="M.121,0,34.057,4.239l-.124,1.036L0,1.022.121,0" transform="translate(0 0)" fill="#334051"/>
            </g>
          </g>
        </g>
        <g id="g5162" transform="matrix(-0.993, 0.122, -0.122, -0.993, 41.009, 24.547)">
          <g id="g5164" transform="translate(0 0)" clip-path="url(#clip-path-5)">
            <g id="g5170" transform="translate(-0.003 0.002)">
              <path id="path5178" d="M.123,0,34.073,4.109l-.119,1.038L0,1.018.123,0" transform="translate(0 0)" fill="#334051"/>
            </g>
          </g>
        </g>
        <g id="g5184" transform="matrix(-0.993, 0.122, -0.122, -0.993, 41.044, 32.307)">
          <g id="g5186" transform="translate(0 0)" clip-path="url(#clip-path-6)">
            <g id="g5192" transform="translate(0.001 0.002)">
              <path id="path5200" d="M.121,0,34.089,3.987l-.124,1.034L0,1.017.121,0" transform="translate(0 0)" fill="#334051"/>
            </g>
          </g>
        </g>
        <g id="g5202" transform="matrix(-0.993, 0.122, -0.122, -0.993, 33.218, 34.181)">
          <path id="path5204" d="M5.637.023,13.247.9a3.588,3.588,0,0,1,3.11,4L14.638,19.419a3.557,3.557,0,0,1-3.954,3.143l-7.6-.97a3.6,3.6,0,0,1-3.062-4.01l1.705-14.4A3.567,3.567,0,0,1,5.637.023" transform="translate(0 0)" fill="#334051"/>
        </g>
      </g>
    </g>
    <g id="Group_6904" data-name="Group 6904" transform="translate(18859.746 -24466.779)">
      <path id="Path_5266" data-name="Path 5266" d="M0,0H205.385V46.376H0Z" transform="translate(0.351 60.912)" fill="#5e91cd"/>
      <g id="Group_6880" data-name="Group 6880" transform="translate(0.235 0.06)">
        <g id="Group_6879" data-name="Group 6879" style="mix-blend-mode: normal;isolation: isolate">
          <path id="Path_5143" data-name="Path 5143" d="M11.065,0H194.024l11.5,60.51H0Z" fill="#5e91cd"/>
          <path id="Union_27" data-name="Union 27" d="M3.6,38.348,9.723.823,179.159.5l9.162,51.171-186.954.4ZM14.019,6.885,7.9,45.07l63.066-.132q.02-.109.041-.217t.043-.217q.022-.108.046-.216t.049-.216q.085-.366.187-.729t.221-.721q.119-.358.257-.711t.293-.7q.156-.346.332-.684t.371-.668q.2-.33.412-.65t.454-.629q.238-.309.5-.607t.543-.583q.283-.285.59-.557t.638-.529q.279-.217.571-.42t.593-.391q.3-.189.615-.364t.635-.337q.322-.162.653-.312t.67-.288q.339-.138.686-.264t.7-.242q.353-.115.713-.22t.724-.2q.365-.095.734-.18t.743-.161q.374-.076.751-.143t.756-.126q.379-.059.761-.11t.764-.095q0-.062-.007-.124t-.007-.124q0-.062-.008-.124t-.008-.125q0-.062-.009-.124t-.009-.124q0-.062-.01-.124t-.01-.124l-.011-.124-.011-.124-.011-.124-.012-.124-.012-.124-.012-.124-.013-.124-.013-.124v-.184l-.07,0-.07,0-.07,0-.069,0-.07,0-.07,0-.07,0-.07,0-.069,0-.07,0H84.76l-.073,0-.073,0-.073,0-.073,0-.073,0-.073,0-.073,0-.073,0-.073,0-.073,0-.073,0-.073,0-.073,0-.073,0-.073,0-.073,0-.073,0-.073,0-.073,0-.073-.005-.073-.005-.073-.005-.073-.005-.072-.006-.072-.006-.072-.006L82.8,30.2l-.073-.006-.073-.007-.072-.007-.072-.007-.072-.007-.072-.007-.072-.007-.072-.008-.022,0-.023,0-.023,0-.023,0-.023,0-.023,0-.023,0-.023,0-.023,0-.023,0-.023,0-.023,0-.023,0-.023,0-.023,0-.023,0-.023,0-.023,0-.023,0-.022,0-.023,0-.023,0-.023,0-.022,0-.023,0-.022,0-.022,0-.022,0-.022,0-.022-.005-.022-.005-.022-.005-.022-.006-.022-.006-.022-.006L81.406,30,81.385,30l-.021-.006-.021-.006-.021-.007-.02-.007-.02-.007-.02-.007-.02-.008-.02-.008-.02-.008-.02-.008-.019-.008-.019-.008-.019-.009-.019-.009-.018-.009-.018-.009-.018-.01-.018-.01-.018-.01L81,29.834l-.017-.011-.017-.011-.017-.011-.016-.011-.016-.012-.016-.012-.016-.012-.016-.012-.015-.013-.015-.013-.014-.013-.014-.013-.013-.013-.013-.013-.013-.014-.012-.014-.012-.014-.012-.014-.011-.014-.011-.014-.011-.014-.01-.015-.01-.015-.01-.015-.009-.015-.009-.015-.009-.015-.009-.015-.008-.015-.008-.015-.008-.016L80.6,29.4l-.007-.016-.007-.016-.006-.016-.007-.016-.006-.016-.006-.016-.006-.016-.006-.016-.005-.016-.005-.017,0-.017,0-.017,0-.017,0-.017,0-.017,0-.017,0-.017,0-.017,0-.017,0-.017,0-.017,0-.017,0-.017,0-.017,0-.017,0-.017,0-.017,0-.017,0-.017,0-.017,0-.017,0-.017,0-.017,0-.017v-.017l0-.017v-.051q0-.043-.006-.085t-.006-.085q0-.043-.005-.085t0-.085q0-.042,0-.085t0-.085q0-.042,0-.085t0-.085q0-.042,0-.085t0-.085q0-.042,0-.085t0-.085q0-.042,0-.085t0-.085q0-.042,0-.085t0-.085q0-.042,0-.085t0-.085q0-.042,0-.085t0-.085l0-.085q0-.042,0-.085t0-.085q0-.042,0-.085l0-.084,0-.085,0-.085,0-.084,0-.085,0-.085,0-.084,0-.084,0-.085,0-.084,0-.084,0-.084,0-.084.005-.084.005-.084.005-.084,0-.084,0-.084,0-.084,0-.084,0-.084,0-.084,0-.084,0-.084,0-.084,0-.084,0-.084,0-.084,0-.084,0-.084q0-.042,0-.084t0-.084q0-.042,0-.084t0-.084q0-.042,0-.084t0-.084v-.084q0-.042,0-.084t0-.084q0-.042,0-.083,0-.076,0-.153t0-.153q0-.076,0-.153t-.005-.153q0-.076-.006-.153t-.007-.153q0-.076-.008-.153t-.009-.153q0-.076-.01-.153t-.01-.153q-.005-.076-.011-.153T80.5,21.51q-.006-.076-.012-.152l-.013-.152-.013-.152-.013-.152q-.006-.076-.013-.152l-.013-.152-.014-.152-.014-.152-.013-.152-.013-.152-.013-.152-.013-.152-.012-.151q-.006-.076-.012-.151t-.011-.151q-.005-.076-.011-.151t-.01-.151q0-.075-.009-.151t-.009-.151q0-.075-.008-.15t-.007-.15q0-.075-.006-.15t0-.15q0-.075,0-.15t0-.15q0-.075,0-.149t0-.149q0-.074,0-.149t0-.149q0-.074,0-.148t.006-.148q0-.074.008-.148t.01-.148q.005-.074.012-.147t.013-.147q.007-.074.016-.147t.018-.147q.009-.073.02-.146t.022-.146q.012-.073.024-.146t.027-.146q.014-.073.029-.145t.031-.145q.016-.072.034-.145t.037-.145q.019-.072.039-.144t.042-.144q.022-.072.045-.144t.048-.143q.025-.072.051-.143t.054-.143q.028-.071.057-.142.038-.093.079-.184t.084-.183q.044-.091.09-.181t.1-.179q.049-.089.1-.178t.106-.176q.054-.088.111-.174t.116-.172q.059-.086.121-.171t.126-.169q.064-.084.131-.167t.136-.165q.069-.082.14-.163t.145-.161q.074-.08.15-.158t.154-.156q.078-.078.158-.154t.163-.152l.167-.15.171-.147.175-.145.179-.143.183-.14.186-.138.19-.135.193-.132.2-.13.2-.127.2-.125.207-.122.21-.119.213-.116.216-.113.219-.11.221-.108.224-.1.227-.1.229-.1.232-.1.234-.092.236-.089.239-.086.241-.083.243-.079.245-.076.247-.072.249-.069.25-.066.252-.062.254-.058.255-.055.257-.051.258-.047.259-.044.261-.04.261-.036L91.848,7l.264-.029.264-.025.265-.021.266-.017.267-.013.267-.008.268,0h.382l.127,0,.127,0,.127,0,.127,0,.127.005.126.006.127.006.127.007.127.008.126.009.126.009.126.01.126.011.126.011L95.988,7l.126.012.126.013.126.014.126.014.125.015.125.015.125.016.125.017.125.017.125.018.125.018.125.019.125.019.125.019.125.02.124.02.124.021.124.021.124.022.124.022.124.022.124.023.124.023.124.023.124.024.124.024.124.024.123.025.123.025.123.025.124.026.123.026.123.026.123.026.123.026.123.026.123.027.123.027.123.027.122.027.122.027.122.027.122.028.122.028.122.028.122.028.07.016.07.016.07.016.07.016.07.016.07.016.07.016.07.016.07.017.07.017.07.017.07.017.07.017.07.017.07.017.069.017.069.018.07.018.069.018.069.018.069.018.069.018.069.019.069.019.069.019.068.019.068.02.068.02.068.02.068.02.067.021.067.021.023.007.023.007.023.007.023.007.022.007.022.007.023.007.023.007.022.007.022.007.022.007.022.008.023.007.022.007.022.007.022.008.044.015.044.015.044.015.044.015.043.016.043.016.043.016.043.016.043.016.043.016.043.016.043.017.042.017.042.017.042.017.042.017.063.027.062.027.062.027.061.028.061.028.061.029.061.029.06.03.06.03.059.03.059.031.058.031.058.032.057.032.057.033.056.033.132.081.128.083.124.085.12.086.116.088.113.09.109.092.1.093.1.1.1.1.095.1.091.1.088.1.085.1.081.1.078.105.075.107.072.108q.035.054.069.109t.066.11q.032.056.063.112t.06.113q.029.057.057.114t.055.115q.027.058.052.116t.049.117q.024.059.047.118t.044.119q.022.06.042.12t.04.121q.019.061.037.121t.035.122q.017.061.033.123t.031.124q.015.062.028.124t.026.125q.013.063.024.125t.023.126q.011.063.021.126t.019.127q.009.064.017.127t.015.128q.007.064.014.128t.012.128q.006.064.01.128t.009.129q0,.064.008.129t.006.129q0,.05,0,.1t0,.1q0,.05,0,.1t0,.1q0,.05,0,.1t0,.1q0,.05,0,.1t0,.1q0,.05,0,.1t0,.1q0,.05,0,.1t0,.1q0,.05,0,.1t0,.1q0,.049,0,.1t0,.1l.008.022.008.022.008.022.008.022.008.022.008.022.008.022.008.022.008.022.008.022.008.022.008.022.007.022.007.022.007.022.007.022.037.1.036.1.035.1.034.1.033.1.033.1.032.1.031.1.03.1.029.105.029.105.028.105.028.106.027.106.026.106.025.106.025.106.024.106.023.106.023.106.022.106.021.106.021.107.02.107.02.107.019.107.018.107.017.107.016.107.016.107.015.107q.007.054.014.107l.013.107.013.107.012.108.012.108q.006.054.011.108t.01.108q0,.054.009.108t.009.108q0,.054.008.108t.007.108q0,.054.007.108t.006.108q0,.054.005.108t0,.108q0,.054,0,.108t0,.108q0,.054,0,.108t0,.108q0,.054,0,.108t0,.109q0,.054,0,.108t0,.108q0,.054,0,.109t0,.109q0,.054,0,.108t0,.108q0,.054,0,.109t0,.109q0,.054-.006.108t-.006.108q0,.054-.007.108t-.008.108l0,.04,0,.04,0,.04,0,.041,0,.041,0,.041,0,.041,0,.041,0,.041,0,.041,0,.041,0,.041-.005.041-.005.041-.005.041-.006.041-.006.041-.007.041-.007.041-.007.041-.007.041-.008.041-.008.041-.008.041-.009.041-.009.041-.009.041-.01.041-.01.041-.011.041-.011.041-.012.041-.011.04-.012.04-.012.04-.012.04-.013.04-.013.04-.014.04-.014.04-.015.039-.016.039-.016.039-.017.039-.017.039-.018.039-.019.039-.02.039-.019.039-.019.039-.02.038-.021.038-.021.039-.022.038-.022.038-.023.038-.024.038-.025.038-.025.038-.026.037-.026.037-.027.037-.028.037-.028.036-.071.087-.074.085-.077.083-.08.082-.084.08-.087.078-.09.076-.093.074-.1.073-.1.071-.1.069-.1.068-.107.066-.109.064-.112.063-.114.061-.115.059-.118.058-.12.056-.122.054-.124.053-.126.052-.128.05-.13.048-.132.047-.134.045-.135.044-.137.042-.139.041-.141.039-.142.037-.143.036-.145.034-.146.033-.148.031-.149.03-.149.029-.15.027-.151.026-.152.024-.153.023-.154.022-.155.02-.155.019-.156.018-.156.017-.157.015-.157.014-.157.012-.157.011-.158.01-.158.008-.158.007-.158.006-.158,0-.158,0-.158,0h-.472l-.156,0-.156,0-.155,0-.154-.006q-.023.054-.045.108t-.042.109q-.02.054-.039.109t-.036.109q-.017.055-.033.109t-.03.11q-.014.055-.028.11t-.025.11q-.012.055-.023.11t-.02.111q-.01.055-.018.111t-.016.111q-.008.055-.014.111t-.012.111q-.005.056-.01.111t-.008.111q0,.056-.005.112t0,.112q0,.056,0,.113t0,.113q0,.056,0,.113t0,.113q0,.057,0,.114t0,.114q0,.057.005.114T100,31.4q0,.057.007.114t.008.114q0,.057.009.114l.009.114.01.114.01.114,0,.025,0,.025,0,.025,0,.025,0,.025,0,.025,0,.025,0,.025,0,.025,0,.025,0,.025,0,.025,0,.026,0,.026,0,.026,0,.026.257.027.257.028.257.029.257.03.256.032.256.033.256.034.256.035.256.035.256.037.255.038.255.038.255.04.255.041.255.042.255.042.422.073.422.077.422.081.421.086.419.091q.209.047.417.1t.415.1q.207.053.412.109t.409.117q.2.06.4.124t.4.133q.2.068.4.141t.391.151q.194.078.385.161t.379.171q.188.088.373.182.27.137.531.285t.511.307q.251.158.492.327t.472.346q.231.177.453.364t.434.38q.212.194.414.4t.4.411q.193.209.377.424t.358.436q.174.221.34.447t.321.458q.156.231.3.467t.285.474q.138.239.267.481t.249.486q.12.244.232.491t.217.5q.1.249.2.5t.189.5q.063.175.124.351t.119.353q.058.177.114.355t.109.356l16.859-.035-.159.1,46.873-.1L175.689,6.4l-49.549.461.049.041.049.041.049.041.049.041.049.042.048.042.048.042.048.042.048.042.048.042.048.042.047.042.047.042.047.042.047.042.047.043.109.1.108.1.107.1.106.1.106.1.1.1.1.1.1.1.1.1.1.1.1.1.1.105.1.106.1.106.1.107.1.107.131.149.13.15.128.151.127.151.125.152.123.153.122.153.12.154.118.155.117.155.115.156.114.157.112.157.111.158.109.158.108.159.106.16.1.16.1.161.1.161.1.162.1.162.1.163.1.164.094.164.093.164.092.165.09.165.089.166.088.166.086.167.085.167.084.168.082.168.081.169.08.169.079.169.077.17.076.17.075.171.074.171.073.171.071.172.07.172.069.173.068.173.067.173.066.173.064.174.063.174.062.174.061.174.06.175.059.175.058.175.057.175.056.176.055.176.054.176.053.176.052.177.051.177.05.177.049.177.021.077.021.077.021.077.02.077.02.077.02.078.019.078.019.078.019.078.018.078.018.078.018.078.017.078.017.078.016.078.016.078.015.078.015.078.014.078.013.078.013.079.012.079.011.079q.006.039.011.079t.01.079q0,.039.009.078t.008.078l.008.078q0,.039.007.078t.006.078q0,.039.005.078t0,.078q0,.039,0,.078t0,.078q0,.039,0,.078t0,.078q0,.039,0,.078t0,.078q0,.039,0,.078t0,.078q0,.039,0,.078t-.006.077q0,.039-.007.077t-.008.077q0,.039-.009.077t-.01.077q-.005.038-.011.077t-.013.077q-.007.038-.014.076l-.015.076-.017.076q-.009.038-.018.076l-.019.076-.021.075-.022.075-.023.075-.025.075-.026.075-.028.074-.03.074-.031.074-.032.073-.034.073-.036.073q-.015-.131-.033-.262t-.038-.261q-.02-.13-.043-.26t-.048-.26q-.025-.13-.053-.259t-.058-.258q-.03-.129-.063-.257t-.068-.256q-.035-.128-.072-.255t-.076-.254q-.039-.127-.081-.253t-.085-.252q-.044-.126-.09-.252t-.094-.251q-.048-.125-.1-.25t-.1-.249q-.052-.124-.106-.248t-.11-.247q-.056-.123-.114-.246t-.117-.246q-.06-.122-.121-.245t-.125-.244q-.063-.122-.128-.243t-.131-.242q-.067-.121-.135-.241t-.138-.24q-.07-.12-.141-.24l-.144-.239-.147-.238-.15-.237-.153-.236-.156-.235-.158-.235-.161-.234-.164-.233-.166-.232-.169-.231-.171-.23-.173-.229-.175-.229-.177-.228-.179-.227-.181-.226-.183-.225-.185-.225-.186-.224-.188-.223-.19-.222-.191-.221-.192-.22-.194-.22-.195-.219-.2-.218-.2-.217-.2-.216-.2-.216-.2-.215-.2-.214-.2-.213-.2-.212-.2-.211-.2-.211-.2-.21-.2-.209-.094-.1-.094-.1-.094-.1-.094-.1-.095-.1-.1-.1-.1-.1-.1-.1-.1-.1-.1-.095-.1-.095-.1-.095-.1-.094-.1-.094-.1-.094-.1-.094-.087-.082-.088-.082-.088-.082-.089-.081-.089-.081-.089-.081-.09-.081-.09-.08-.091-.08-.091-.08-.092-.079-.092-.079-.092-.079-.093-.078-.093-.078-.094-.078-1.418.013L113.39,3.541l-39.133.075L67.852,6.78h-.6l-.063.058-.062.058-.062.058L67,7.015l-.061.059-.061.059-.061.059-.06.06-.059.06-.059.06-.059.06-.058.061-.058.061-.058.061-.058.061-.057.061-.089.1-.088.1-.088.1-.087.1-.086.1-.085.1-.085.1-.084.1-.083.1-.083.1-.082.1-.082.1-.081.1-.08.1-.08.1-.079.1-.079.1-.078.1-.078.1-.078.1-.077.1-.076.1-.076.1-.076.1-.075.1-.075.1-.075.1-.074.1-.074.1-.074.1-.074.1-.073.1-.159.227-.159.228-.158.229L63.1,11.9l-.157.23-.156.231-.155.232-.154.232-.153.233-.152.234-.151.235-.149.235L61.726,14l-.147.237-.145.237-.144.238-.143.239-.141.239-.139.24-.137.241-.135.242-.133.242-.131.243-.129.243-.127.244-.124.244-.122.245q-.06.123-.119.246t-.117.246q-.058.123-.114.247t-.112.248q-.055.124-.109.248t-.106.248q-.052.124-.1.249t-.1.25q-.049.125-.1.251t-.094.251q-.046.126-.09.251t-.087.252q-.043.126-.084.252t-.081.253q-.039.127-.077.254t-.073.254q-.036.127-.069.254t-.066.255q-.032.128-.062.255t-.058.256q-.028.128-.053.256t-.05.257q-.024.129-.045.257t-.041.258q-.019.129-.036.258t-.032.258q-.015.129-.027.259t-.023.259q-.01.13-.018.26t-.013.26q-.005.13-.008.261t0,.261q0,.131,0,.261t.007.262q0,.131.012.262t.017.262q.01.131.023.263l-.051-.069-.05-.069-.048-.069-.047-.07-.045-.07-.044-.071-.042-.071-.041-.071-.039-.072-.038-.072-.037-.073-.035-.073-.034-.073-.033-.073-.031-.074-.03-.074-.029-.074-.028-.075-.026-.075-.025-.075-.025-.075-.023-.076-.022-.076-.021-.076-.02-.076-.019-.077-.018-.077-.017-.077-.016-.077-.015-.077-.014-.078q-.007-.039-.013-.078t-.012-.078q-.006-.039-.011-.078l-.01-.078-.01-.078q0-.039-.009-.079t-.008-.079q0-.039-.007-.079l-.007-.079q0-.039-.006-.079t-.005-.079q0-.039,0-.079t0-.079q0-.04,0-.079t0-.079q0-.04,0-.079t0-.079q0-.04,0-.079t0-.079q0-.04,0-.079t0-.079q0-.04,0-.079t0-.079q0-.039,0-.079t0-.079q0-.039,0-.079t0-.079q0-.039,0-.079t0-.079l0-.079,0-.078,0-.078,0-.078q.006-.09.012-.18t.013-.18q.007-.09.014-.18t.015-.18q.008-.09.016-.18t.017-.18q.009-.09.018-.18t.019-.18q.01-.09.02-.18t.021-.179q.011-.09.022-.179t.023-.179q.012-.089.024-.179t.025-.179q.013-.089.027-.179t.028-.179q.014-.089.029-.178t.03-.178q.015-.089.031-.178t.032-.178q.017-.089.034-.177t.035-.177q.018-.089.036-.177t.038-.177l.039-.176.04-.176q.02-.088.041-.176t.043-.176l.044-.175.046-.175.047-.175.049-.175.05-.174.051-.174.053-.174.054-.173.055-.173.057-.172.058-.172.06-.172.062-.171.063-.171.065-.171.066-.17.068-.17.069-.169.071-.169.073-.169.074-.168.076-.168.077-.167.079-.167.08-.166.082-.166.084-.165.086-.165.088-.164.089-.164.091-.163.093-.163.094-.163.1-.162.1-.161.1-.161.073-.115.074-.115.075-.115.076-.114.077-.114.078-.114.079-.113.08-.113.081-.113.082-.112.083-.112.084-.111L61,9.373l.086-.111.087-.11.088-.11.089-.11.09-.109.091-.109.092-.108L61.71,8.5l.093-.107.094-.107.1-.107.1-.106.1-.106.1-.105.1-.1.1-.1.1-.1.1-.1.1-.1.035-.035.036-.035.036-.035.036-.035.036-.035.036-.035.036-.035.037-.035.037-.035.037-.034.037-.034.037-.035.037-.034.037-.034.037-.034.037-.034ZM25.412,36.317q-.11-.014-.219-.033t-.216-.04q-.108-.022-.214-.047t-.211-.054q-.1-.028-.208-.06t-.205-.067q-.1-.035-.2-.074t-.2-.08q-.1-.042-.2-.086t-.193-.093q-.1-.048-.19-.1t-.186-.105q-.093-.054-.184-.111t-.18-.117q-.089-.06-.177-.123T22.258,35q-.086-.066-.169-.134t-.166-.14q-.082-.071-.162-.145t-.158-.151q-.078-.077-.155-.156t-.151-.161q-.074-.082-.147-.166t-.143-.171q-.07-.087-.139-.176t-.135-.181q-.066-.091-.131-.185t-.126-.19q-.062-.1-.122-.194t-.118-.2q-.058-.1-.113-.2t-.109-.207q-.053-.1-.1-.211t-.1-.215q-.049-.108-.1-.219t-.09-.223q-.044-.112-.086-.226t-.081-.23q-.039-.116-.076-.233t-.071-.237q-.034-.119-.067-.24t-.062-.243q-.03-.122-.057-.246t-.052-.249q-.024-.125-.046-.252t-.041-.255q-.019-.128-.036-.258t-.031-.26q-.014-.131-.025-.263t-.02-.265q-.009-.133-.015-.267t-.009-.27q0-.135,0-.272t0-.274q0-.137.008-.276t.013-.278q.008-.139.019-.279t.025-.281q.014-.141.03-.283t.036-.284q.02-.142.042-.284t.047-.282q.025-.14.052-.28t.058-.277q.03-.138.063-.275t.068-.273q.035-.136.073-.27t.078-.268q.04-.133.082-.265t.087-.262q.045-.13.091-.26t.1-.257q.049-.128.1-.254t.1-.251q.053-.125.109-.248t.113-.245q.058-.121.117-.241t.121-.238q.061-.118.125-.235t.129-.231q.065-.115.132-.228T21,19.509q.069-.111.139-.22t.143-.217q.072-.107.146-.213t.15-.209q.076-.1.153-.2t.156-.2q.079-.1.159-.2t.162-.192q.082-.1.165-.188t.168-.184q.085-.091.17-.179t.173-.175q.087-.086.176-.17t.179-.165q.09-.082.181-.161t.183-.156q.092-.077.186-.151t.188-.146q.095-.072.19-.141t.192-.136q.1-.067.194-.131t.2-.125q.1-.061.2-.12t.2-.115q.1-.056.2-.109t.2-.1q.1-.05.2-.1t.206-.092q.1-.045.208-.086t.209-.081q.1-.039.21-.075T26.8,14.7q.106-.033.213-.062t.214-.056q.107-.027.215-.05t.216-.044q.108-.02.217-.037t.217-.031q.109-.014.218-.024t.219-.017q.11-.007.22-.011t.22,0l.2,0,.193.008.192.013.19.018.188.024.186.029.184.034.182.039.18.044.178.049.176.054.174.059.172.064.17.068.168.073.166.078.02.01.02.01.02.01.02.01.02.01.02.01.02.01.02.01.02.011.02.011.02.011.02.011.02.011.02.011.02.011.02.011q.09.05.178.1t.175.108q.087.056.172.114t.169.119q.084.061.166.125t.163.13q.081.066.159.135t.156.14q.077.071.153.145t.149.15q.074.076.146.155t.142.16q.07.081.139.165t.135.169q.067.086.131.174t.127.179q.063.09.123.183t.12.187q.059.095.116.192t.112.2q.055.1.108.2t.1.2q.051.1.1.208t.095.212q.047.107.091.216t.086.22q.042.111.082.224t.077.227q.037.114.073.231T36,20.4q.033.118.063.238t.059.241q.028.121.054.244t.049.247q.023.125.044.25t.039.253q.018.127.033.256t.028.259q.013.13.023.262t.018.265q.008.133.013.267t.007.27q0,.136,0,.272t0,.275q0,.138-.009.277t-.015.28q-.009.14-.021.282t-.027.284q-.015.142-.032.284t-.038.283q-.02.141-.043.281t-.049.279q-.026.139-.054.278t-.059.276q-.031.138-.064.274t-.069.272q-.036.136-.075.27t-.079.268q-.041.133-.084.265t-.089.263q-.046.131-.094.26t-.1.258q-.05.128-.1.255t-.107.252q-.055.126-.112.25T35,29.933q-.059.123-.12.244t-.125.24q-.063.119-.129.237t-.133.234q-.067.116-.137.23t-.141.227q-.071.113-.144.223t-.148.219q-.075.109-.152.216t-.155.212q-.079.1-.159.207t-.163.2q-.082.1-.166.2t-.169.195q-.085.1-.172.19t-.175.186q-.088.092-.178.181t-.181.177q-.092.087-.185.172t-.187.167q-.094.082-.19.162t-.192.156q-.1.077-.195.151t-.2.146q-.1.072-.2.141t-.2.135q-.1.066-.2.129t-.206.124q-.1.06-.208.118t-.21.112q-.106.054-.212.106t-.214.1q-.107.048-.216.094t-.217.087q-.109.042-.219.081t-.22.074q-.11.036-.221.068t-.223.061q-.112.029-.224.054t-.225.047q-.113.022-.226.04t-.227.033q-.114.015-.228.026t-.229.019q-.114.008-.229.012t-.23,0H26.3q-.114,0-.226,0t-.224-.011q-.111-.007-.221-.018T25.412,36.317Zm132.2-1.7a9.574,9.574,0,0,1-.832-.48q-.407-.263-.8-.57t-.757-.653q-.368-.346-.712-.73t-.662-.8q-.317-.417-.606-.866T152.7,29.6q-.257-.475-.48-.976t-.41-1.022q-.187-.521-.335-1.062t-.256-1.1q-.107-.555-.172-1.124t-.081-1.119q-.018-.55.009-1.082t.095-1.04q.068-.508.177-.993t.254-.941q.146-.457.328-.885t.4-.823a8.755,8.755,0,0,1,.463-.757,8.094,8.094,0,0,1,.525-.686,7.531,7.531,0,0,1,.584-.61,7.064,7.064,0,0,1,.639-.53,6.708,6.708,0,0,1,.69-.445,6.479,6.479,0,0,1,.738-.355,6.411,6.411,0,0,1,.782-.26,6.507,6.507,0,0,1,.824-.159,6.791,6.791,0,0,1,.862-.054,7.13,7.13,0,0,1,.876.054,7.493,7.493,0,0,1,.865.159,8.018,8.018,0,0,1,.849.26,8.681,8.681,0,0,1,.829.355q.409.2.805.445t.776.53q.38.286.742.61t.7.686q.341.361.659.757t.611.823q.292.428.557.885t.5.941q.234.484.434.993t.364,1.04q.164.531.289,1.082t.208,1.119q.083.568.119,1.124t.028,1.1q-.008.54-.06,1.062t-.146,1.022q-.094.5-.228.976t-.306.924q-.172.448-.382.866a8.945,8.945,0,0,1-.454.8,8.3,8.3,0,0,1-.523.73,7.675,7.675,0,0,1-.588.653,7.15,7.15,0,0,1-.65.57,6.75,6.75,0,0,1-.708.48,6.5,6.5,0,0,1-.761.384,6.4,6.4,0,0,1-.811.282,6.5,6.5,0,0,1-.857.173,6.794,6.794,0,0,1-.9.059,7.143,7.143,0,0,1-.914-.059,7.532,7.532,0,0,1-.9-.173,8.084,8.084,0,0,1-.884-.282A8.771,8.771,0,0,1,157.611,34.619Z" transform="translate(8.25 4.008)" fill="none" stroke="#334051" stroke-width="2"/>
        </g>
      </g>
      <path id="Path_5267" data-name="Path 5267" d="M770.88,893.828h36.246" transform="translate(-770.529 -823.347)" fill="none" stroke="#334051" stroke-width="2"/>
      <path id="Path_5268" data-name="Path 5268" d="M770.88,893.828h36.246" transform="translate(-770.529 -814.384)" fill="none" stroke="#334051" stroke-width="2"/>
      <path id="Path_5274" data-name="Path 5274" d="M770.88,893.828h36.246" transform="translate(-673.878 -814.384)" fill="none" stroke="#334051" stroke-width="2"/>
      <path id="Path_5276" data-name="Path 5276" d="M770.88,893.828h36.246" transform="translate(-685.96 -803.791)" fill="none" stroke="#334051" stroke-width="2"/>
      <path id="Path_5275" data-name="Path 5275" d="M770.88,893.828h60.408" transform="translate(-704.082 -810.31)" fill="none" stroke="#334051" stroke-width="2"/>
      <path id="Path_5273" data-name="Path 5273" d="M770.88,893.828H789" transform="translate(-770.529 -795.643)" fill="none" stroke="#334051" stroke-width="2"/>
      <path id="Path_5270" data-name="Path 5270" d="M807.126,893.828H770.881" transform="translate(-601.39 -803.791)" fill="none" stroke="#334051" stroke-width="2"/>
      <path id="Path_5272" data-name="Path 5272" d="M807.126,893.828H770.881" transform="translate(-601.39 -825.117)" fill="none" stroke="#334051" stroke-width="2"/>
      <path id="Path_5269" data-name="Path 5269" d="M770.88,893.828h29.161" transform="translate(-770.529 -810.31)" fill="none" stroke="#334051" stroke-width="2"/>
      <path id="Path_5271" data-name="Path 5271" d="M800.041,893.828H770.88" transform="translate(-594.305 -807.866)" fill="none" stroke="#334051" stroke-width="2"/>
    </g>
    <g id="Group_6900" data-name="Group 6900" transform="translate(18918.104 -24668.971)">
      <g id="Rectangle_249" data-name="Rectangle 249" transform="translate(0 48.312)" fill="#fff" stroke="#334051" stroke-width="2">
        <rect width="90.115" height="77.099" rx="17" stroke="none"/>
        <rect x="1" y="1" width="88.115" height="75.099" rx="16" fill="none"/>
      </g>
      <path id="Path_5278" data-name="Path 5278" d="M523.005,602.55a6.8,6.8,0,1,1,10.841,5.456l2.163,15.372H523.6l2.164-15.372A6.782,6.782,0,0,1,523.005,602.55Z" transform="translate(-484.745 -522.704)" fill="#334051"/>
      <path id="Path_1" data-name="Path 1" d="M399.463,334.312h7.989V314.9a20.912,20.912,0,0,1,41.824,0v19.41h7.99V314.9a28.9,28.9,0,0,0-57.8,0Z" transform="translate(-383.307 -286)" fill="#b3c6c5"/>
    </g>
    <g id="Group_6899" data-name="Group 6899" transform="translate(18766.652 -24769.695)">
      <g id="Rectangle_210" data-name="Rectangle 210" transform="translate(0)" fill="#fff" stroke="#b3c6c5" stroke-width="2">
        <rect width="93.336" height="93.336" rx="46.668" stroke="none"/>
        <rect x="1" y="1" width="91.336" height="91.336" rx="45.668" fill="none"/>
      </g>
      <path id="Path_5069" data-name="Path 5069" d="M21.834,7.34a.364.364,0,0,0-.464,0L6.889,18.925a.39.39,0,0,0-.139.288v21.35a.186.186,0,0,0,.186.186H16.961a.186.186,0,0,0,.186-.186v-13a.186.186,0,0,1,.186-.186h8.54a.186.186,0,0,1,.186.186v13a.186.186,0,0,0,.186.186H36.269a.186.186,0,0,0,.186-.186V19.212a.375.375,0,0,0-.139-.288Z" transform="translate(25.164 25.586)" fill="#334051"/>
      <path id="Path_5070" data-name="Path 5070" d="M41.5,17.875,23.955,3.821a2.038,2.038,0,0,0-2.543,0l-7.64,6.21V6.113a.186.186,0,0,0-.186-.186H8.017a.186.186,0,0,0-.186.186v8.559L3.867,17.93a1.3,1.3,0,0,0-.111,1.94,1.291,1.291,0,0,0,.919.381,1.308,1.308,0,0,0,.817-.288L22.563,6.225a.166.166,0,0,1,.121-.037.225.225,0,0,1,.121.037L39.875,19.908a1.308,1.308,0,0,0,.817.288A1.317,1.317,0,0,0,42,18.822,1.319,1.319,0,0,0,41.5,17.875Z" transform="translate(24.085 23.262)" fill="#334051"/>
    </g>
    <g id="Group_6901" data-name="Group 6901" transform="translate(18914.881 -24850.43)">
      <g id="Rectangle_211" data-name="Rectangle 211" transform="translate(0 0)" fill="#fff" stroke="#b3c6c5" stroke-width="2">
        <rect width="93.336" height="93.336" rx="46.668" stroke="none"/>
        <rect x="1" y="1" width="91.336" height="91.336" rx="45.668" fill="none"/>
      </g>
      <path id="Icon_awesome-graduation-cap" data-name="Icon awesome-graduation-cap" d="M47.076,11.956l-21.1-7.164a5.5,5.5,0,0,0-3.539,0l-21.1,7.164a2.027,2.027,0,0,0,0,3.811l3.679,1.249a7,7,0,0,0-1.352,3.92,2.723,2.723,0,0,0-.193,4.432l-1.931,9.6A1.309,1.309,0,0,0,2.719,36.6H6.963a1.309,1.309,0,0,0,1.182-1.627l-1.931-9.6a2.719,2.719,0,0,0-.136-4.39,4.051,4.051,0,0,1,1.565-3.069l14.794,5.023a5.5,5.5,0,0,0,3.539,0l21.1-7.164A2.027,2.027,0,0,0,47.076,11.956ZM26.686,25.489a7.7,7.7,0,0,1-4.961,0l-10.97-3.724L9.682,31.249c0,2.955,6.5,5.35,14.523,5.35s14.523-2.395,14.523-5.35l-1.073-9.485L26.686,25.489Z" transform="translate(22.171 26.36)" fill="#334051"/>
    </g>
    <g id="Group_6902" data-name="Group 6902" transform="translate(18730.143 -24613.898)">
      <g id="Group_6647" data-name="Group 6647" transform="translate(0 0)">
        <g id="Rectangle_211-2" data-name="Rectangle 211" transform="translate(0)" fill="#fff" stroke="#b3c6c5" stroke-width="2">
          <rect width="93.336" height="93.336" rx="46.668" stroke="none"/>
          <rect x="1" y="1" width="91.336" height="91.336" rx="45.668" fill="none"/>
        </g>
      </g>
      <path id="Icon_awesome-car" data-name="Icon awesome-car" d="M42.219,13.957H37.164l-1.405-3.513A9.409,9.409,0,0,0,26.979,4.5H16.255a9.412,9.412,0,0,0-8.781,5.945L6.069,13.957H1.014a1.013,1.013,0,0,0-.983,1.259l.507,2.027a1.013,1.013,0,0,0,.983.768H3.215a5.366,5.366,0,0,0-1.864,4.053v4.053A5.36,5.36,0,0,0,2.7,29.657v4.566a2.7,2.7,0,0,0,2.7,2.7h2.7a2.7,2.7,0,0,0,2.7-2.7v-2.7H32.425v2.7a2.7,2.7,0,0,0,2.7,2.7h2.7a2.7,2.7,0,0,0,2.7-2.7V29.657a5.357,5.357,0,0,0,1.351-3.541V22.064a5.369,5.369,0,0,0-1.864-4.053h1.695a1.013,1.013,0,0,0,.983-.768l.507-2.027A1.014,1.014,0,0,0,42.219,13.957ZM12.491,12.452A4.054,4.054,0,0,1,16.255,9.9H26.979a4.054,4.054,0,0,1,3.764,2.548l1.683,4.208H10.808l1.683-4.208ZM8.106,26.1a2.549,2.549,0,0,1-2.7-2.694,2.549,2.549,0,0,1,2.7-2.694c1.621,0,4.053,2.424,4.053,4.04S9.728,26.1,8.106,26.1Zm27.021,0c-1.621,0-4.053.269-4.053-1.347s2.432-4.04,4.053-4.04a2.549,2.549,0,0,1,2.7,2.694,2.549,2.549,0,0,1-2.7,2.694Z" transform="translate(24.934 25.609)" fill="#334051"/>
    </g>
    <path id="Path_5467" data-name="Path 5467" d="M329.845,691.663H1358.124" transform="translate(18340.156 -25051.156)" fill="none" stroke="#334051" stroke-linecap="round" stroke-width="2"/>
    <path id="Path_5472" data-name="Path 5472" d="M-741.045,533.246c34.3-.143,35.193,0,35.193,0s2.661,27.325,29.984,27.329,25.913-27.329,25.913-27.329h43.547s51.389-3.525,47.209,47.676c.069.122-.215,15.878,0,16.282-.413,37.571-22.556,204.116-22.556,204.116s-35.339,13.209-91.2,3.163-95.733-3.163-95.733-3.163l-18.428-211.07s-.056-5.482,0-13.492C-787.019,547.367-769.035,533.363-741.045,533.246Z" transform="translate(20224.117 -25185.619)" fill="#334051" stroke="#334051" stroke-width="2"/>
    <path id="Path_5476" data-name="Path 5476" d="M892.485,526.611s1.241,28.095,32.859,27.512,30.661-22.658,31.47-27.512-6.652-58.915-6.652-58.915H899.523Z" transform="translate(18624.529 -25178.475)" fill="#fff" stroke="#334051" stroke-width="2"/>
    <path id="Path_5477" data-name="Path 5477" d="M4.712-.009c9.406,0,23.926,12.94,23.926,25.584S26.2,56.225,16.794,56.225,1.032,38.219,1.032,25.575-4.694-.009,4.712-.009Z" transform="translate(19506.721 -24748.156)" fill="#334051"/>
    <path id="Path_5478" data-name="Path 5478" d="M878.377,369.154c3.4.425,56.232,0,56.232,0v56.582s-2.5,32.5-30.628,32.939-36.125-18.8-36.5-32.939,0-56.582,0-56.582Z" transform="translate(18643.854 -25120.607)" fill="#fff" stroke="#334051" stroke-width="2"/>
    <path id="Path_5485" data-name="Path 5485" d="M15.04,0c7.969,0,10.035,12.934,10.035,25.578s-5.737,17.9-5.737,17.9S14.4,45.9,11.683,37.813c-2.031-6.055-9.091-10.282-9.091-15.87,0-5.5-4.107-12.686-1.982-16.8C3.169.182,10.537,0,15.04,0Z" transform="translate(19564.619 -24748.168) rotate(7)" fill="#334051"/>
    <path id="Path_5479" data-name="Path 5479" d="M.213,0a69.659,69.659,0,0,0,0,10.417c.478,3.941,9.014,0,9.014,0" transform="translate(19539.676 -24706.51) rotate(21)" fill="none" stroke="#334051" stroke-linecap="round" stroke-width="2"/>
    <ellipse id="Ellipse_175" data-name="Ellipse 175" cx="3.563" cy="3.563" rx="3.563" ry="3.563" transform="translate(19521.918 -24716.35)" fill="#334051"/>
    <ellipse id="Ellipse_176" data-name="Ellipse 176" cx="3.563" cy="3.563" rx="3.563" ry="3.563" transform="translate(19548.049 -24716.35)" fill="#334051"/>
    <path id="Path_5480" data-name="Path 5480" d="M886.41,436.852a7.012,7.012,0,0,1,6.3-3.452,8.169,8.169,0,0,1,6.383,3.452" transform="translate(18632.678 -25155.459)" fill="none" stroke="#334051" stroke-linecap="round" stroke-width="2"/>
    <path id="Path_5483" data-name="Path 5483" d="M886.41,436.852a7.012,7.012,0,0,1,6.3-3.452,8.169,8.169,0,0,1,6.383,3.452" transform="translate(18658.662 -25155.459)" fill="none" stroke="#334051" stroke-linecap="round" stroke-width="2"/>
    <path id="Path_5484" data-name="Path 5484" d="M0,0A8.6,8.6,0,0,0,7.723,4.233,10.017,10.017,0,0,0,15.55,0" transform="translate(19547.088 -24678.656) rotate(-25)" fill="none" stroke="#334051" stroke-linecap="round" stroke-width="2"/>
    <path id="Path_5474" data-name="Path 5474" d="M39.2,0c.2.129,4.058,1.262,4.408,21.292s.271,54.343-.82,59.624C29.537,81.1-1.471,78.805.054,39.37S26.488.694,39.2,0Z" transform="translate(19587.244 -24778.021) rotate(91)" fill="#5e91cd"/>
    <path id="Path_5475" data-name="Path 5475" d="M3.939,0C9.213,1.034,17.728,7.563,17.962,12.25c.358,7.1-4.571,13.584-2.953,25.711,1.119,8.385,5.878,18.192,7.784,23.239,1.323,3.5,3.275,9.321,2.2,11.333-.666,1.264-3.1.265-5.537-.543C12.735,69.839,8.676,63.2,8.335,62.329,3.047,47.444,2.581,52.28.819,35.161S.3,9.827,3.02.179A3.752,3.752,0,0,0,3.939,0Z" transform="translate(19571.816 -24739.723) rotate(101)" fill="#4c7fbc"/>
    <path id="Path_5481" data-name="Path 5481" d="M1410.048,552.122s8.708,7.485,15.373,8.958c.028.009.3.084.581.157-.181.918-6.262,7.764-16.534,6.378-.227-.029-.709-.111-1.2-.213C1409.335,559.957,1410.048,552.122,1410.048,552.122Z" transform="translate(18109.385 -25225.889)" fill="#334051"/>
    <path id="Union_67" data-name="Union 67" d="M19.729,70.263c-3.843-3.823-9.1-7.932-13.774-15.507-2.187-3.494-7.7-12.849-5.409-15.63C2.376,36.6,5.07,42.084,5.07,42.084s2.189,2.771,6.217,8.344a82.562,82.562,0,0,0,7.427,8.426c3.191,3.239.556-.475.556-.475L11.18,48.9S1,30.2,3.9,25.4s6.573,6.509,9.94,12.794c1.841,3.438,6.9,9.472,10.915,14.029,3.66,4.149,3.735,3.621.493-.9-4.268-5.95-9.221-13.337-11.145-18.141-3.527-8.8-3.26-15.594-2.673-18.726s5.324-9.228,6.5.341c.073.408.155.823.19.977,2.188,10.061,9.791,22.6,14.679,29.9,2.855,4.264,3.031,3.084.993-1.274-2.962-6.33-6.444-13.856-7.343-16.17-1.561-4-5.489-19.793-1.748-25.2S32.352.2,31.923,4.912c1.284,25.4,13.335,36.29,13.335,36.29L48.7,45.856c.694-2.105,1.173-3.546,1.173-3.546s-3.005-15.255,1.607-19.943S57.467,32.1,57.467,32.1L61.132,62.7l16.05,21.732L55.79,102.809S23.573,74.088,19.729,70.263Z" transform="translate(19570.102 -24334.967) rotate(-90)" fill="#fff" stroke="#334051" stroke-width="2"/>
    <path id="Path_5482" data-name="Path 5482" d="M160.707,0c-.048,13.643-2.05,27.619-2.81,48.9-.826,23.133.82,32.891.838,67.842.188.436,4.837,61.636-56.116,62.323-1.936-.517-96.566,8.8-98.61,8.041C2.1,184.1,1.727,154.019,0,153.6l91.213-30.634-4.437-43.71S160.632-.44,160.707,0Z" transform="translate(19541.84 -24523.623) rotate(-42)" fill="#c8d3e0" stroke="#334051" stroke-width="2"/>
    <path id="Path_5470" data-name="Path 5470" d="M7232.921,867.138l10.875,9.106" transform="translate(12153.217 -25429.723)" fill="none" stroke="#334051" stroke-width="2"/>
    <path id="Path_5488" data-name="Path 5488" d="M0,0,10.875,9.106" transform="matrix(0.208, 0.978, -0.978, 0.208, 19698.555, -24505.77)" fill="none" stroke="#334051" stroke-width="2"/>
  </g>
</svg>
