<svg xmlns="http://www.w3.org/2000/svg" xmlns:xlink="http://www.w3.org/1999/xlink" width="920.874" height="651.852" viewBox="0 0 920.874 651.852">
  <defs>
    <clipPath id="clip-path">
      <path id="Path_5354" data-name="Path 5354" d="M8.592,0H258.468c4.745,0,8.592,5.411,8.592,12.087v349.5c0,6.675-3.847,12.086-8.592,12.086H8.592C3.847,373.675,0,368.264,0,361.589V12.087C0,5.411,3.847,0,8.592,0Z" transform="translate(0)" fill="#fff" stroke="#334051" stroke-width="2"/>
    </clipPath>
    <clipPath id="clip-path-2">
      <rect id="Rectangle_248" data-name="Rectangle 248" width="246.347" height="187.469" rx="20" transform="translate(0 0)" fill="#5e91cd"/>
    </clipPath>
  </defs>
  <g id="Group_6906" data-name="Group 6906" transform="translate(-756.849 -104.776)">
    <path id="Path_5277" data-name="Path 5277" d="M236.341-99.6c156.991-51.48,211.687-13.786,347.035,33.337,184.159,96.873,153.7,372.821,142.931,397.671-164.253-.565-684.381-.869-727.918,0-.13-46.589,0-63.132,0-100.252C-1.61,89.478,79.35-48.117,236.341-99.6Z" transform="translate(841.863 424.217)" fill="#e0edfc"/>
    <path id="Path_5367" data-name="Path 5367" d="M-595.633,802.834l8.934,75.45h-181.62l11.811-75.45S-770.491,802.116-595.633,802.834Z" transform="translate(2207.205 -123.254)" fill="#5e91cd"/>
    <path id="Path_5423" data-name="Path 5423" d="M6.995,4.04,10.31,17.848H3.861l-.392-3.877Z" transform="translate(1527 736.814)" fill="#e0edfc"/>
    <g id="Group_6888" data-name="Group 6888" transform="translate(1043.381 146.836)">
      <g id="Mask_Group_6" data-name="Mask Group 6" clip-path="url(#clip-path)">
        <g id="Group_6887" data-name="Group 6887" transform="translate(318.689 -70.168) rotate(90)">
          <rect id="Rectangle_238" data-name="Rectangle 238" width="508.459" height="326.595" transform="translate(63.943 10.969)" fill="#334051"/>
          <path id="Path_5165" data-name="Path 5165" d="M0,0s9.87,92.246,84.349,99.89,71.939,82.934,73.586,107.03,11.126,42.986,38.626,49.148c15.152,3.4,46.338,6.135,79.632-18.8,10.836-8.188,23.119-21.635,31.658-13.839,4.385,4.438,6.476,11.5,4.043,20.264-2.569,9.251-9.981,20.529-9.6,30.974.817,22.526,17.046,42.854,16.77,51.727" transform="translate(128.305 11.143)" fill="none" stroke="#fff" stroke-width="2" opacity="0.6"/>
          <path id="Path_5166" data-name="Path 5166" d="M291.577,0c-4.9,4.222-28.85,16.014-63.482,19.569-74.479,7.644-72.406,87.877-74.054,111.973s-11.126,42.986-38.626,49.148c-15.152,3.4-46.338,6.134-79.632-18.8C24.947,153.7,12.664,140.251,4.125,148.047c-4.385,4.438-5.211,10.994-2.777,19.758,9.545,23.051,5.167,38.177,4.37,41.761" transform="translate(271.043 48.441) rotate(82)" fill="none" stroke="#fff" stroke-width="2" opacity="0.6"/>
          <path id="Path_5167" data-name="Path 5167" d="M0,0S2.466,66.826,60.608,75.174s72.745,39.614,76.768,45.557c2.7,3.982,10.071,25.426,26.671,42.62a75.352,75.352,0,0,0,31.2,19.063c35.33,10.422,59.087-23.05,54.79-51.437-1.811-14.26-27.186-60.471-62.834-15.161-5.149,6.6-7.779,15.372-18.859,13.654C150.566,128.38,153.3,88.2,145.781,56.737S124.41,20.461,124.139,0" transform="translate(151.321 11.462)" fill="none" stroke="#fff" stroke-width="2" opacity="0.6"/>
          <g id="Path_5168" data-name="Path 5168" transform="matrix(0.719, -0.695, 0.695, 0.719, 330.502, 156.136)" fill="none" opacity="0.6">
            <path d="M36.523,0c13.37,0,18.261,10.61,14.242,23.553S33.949,41.3,24.02,42.407,0,38.945,0,25.575,23.152,0,36.523,0Z" stroke="none"/>
            <path d="M 36.52283477783203 1.999996185302734 C 33.45600891113281 1.999996185302734 29.75126647949219 2.696018218994141 25.80910682678223 4.012805938720703 C 21.81728744506836 5.346199035644531 17.84347534179688 7.230949401855469 14.31727600097656 9.463306427001953 C 10.60001754760742 11.81662750244141 7.515888214111328 14.48319816589355 5.398307800292969 17.17472839355469 C 3.143356323242188 20.04086685180664 1.999996185302734 22.86706733703613 1.999996185302734 25.57480812072754 C 1.999996185302734 28.09864807128906 2.568466186523438 30.3759765625 3.689624786376953 32.34352874755859 C 4.705776214599609 34.12678527832031 6.181797027587891 35.67546844482422 8.076705932617188 36.94654846191406 C 11.50625610351562 39.2470588684082 16.24886703491211 40.56646728515625 21.08846664428711 40.56646728515625 C 22.01161575317383 40.56646728515625 22.92334747314453 40.51689910888672 23.79833602905273 40.41912841796875 C 27.66733741760254 39.98680877685547 33.37280654907227 38.81729888916016 38.58206939697266 35.7008171081543 C 43.7297477722168 32.62117767333984 47.18601608276367 28.33441734313965 48.85489654541016 22.95961761474609 C 49.89081573486328 19.6233081817627 50.298828125 16.49109840393066 50.06758499145508 13.64996719360352 C 49.84552764892578 10.9216194152832 49.04227447509766 8.600597381591797 47.68014526367188 6.751377105712891 C 46.58306884765625 5.261978149414062 45.1287956237793 4.102867126464844 43.35774612426758 3.306247711181641 C 41.43076705932617 2.439476013183594 39.13116455078125 1.999996185302734 36.52283477783203 1.999996185302734 M 36.52283477783203 -3.814697265625e-06 C 49.89330673217773 -3.814697265625e-06 54.78357696533203 10.61023712158203 50.76493835449219 23.55268669128418 C 46.74631500244141 36.4951286315918 33.94885635375977 41.29736709594727 24.02043724060059 42.40675735473633 C 14.09202194213867 43.51615524291992 -3.814697265625e-06 38.9453010559082 -3.814697265625e-06 25.57480812072754 C -3.814697265625e-06 12.2043285369873 23.15234565734863 -3.814697265625e-06 36.52283477783203 -3.814697265625e-06 Z" stroke="none" fill="#fff"/>
          </g>
          <g id="Path_5169" data-name="Path 5169" transform="matrix(0.891, -0.454, 0.454, 0.891, 40.537, 254.974)" fill="none" opacity="0.6">
            <path d="M36.523,0c13.37,0,18.261,10.61,14.242,23.553S37.515,43.989,27.587,45.1,0,38.945,0,25.575,23.152,0,36.523,0Z" stroke="none"/>
            <path d="M 36.52283477783203 2 C 33.45600891113281 2 29.75126647949219 2.696022033691406 25.80910682678223 4.012809753417969 C 21.81728744506836 5.346202850341797 17.84347534179688 7.230953216552734 14.31727600097656 9.463310241699219 C 10.60001754760742 11.81663131713867 7.515888214111328 14.48320198059082 5.398307800292969 17.17473220825195 C 3.143356323242188 20.04087066650391 1.999996185302734 22.8670711517334 1.999996185302734 25.5748119354248 C 1.999996185302734 28.12862205505371 2.7503662109375 30.56128120422363 4.230266571044922 32.80522155761719 C 5.601104736328125 34.88381195068359 7.559066772460938 36.7655029296875 10.04975509643555 38.39801025390625 C 12.33512496948242 39.89595031738281 15.02301788330078 41.13500213623047 17.82283782958984 41.98123168945312 C 20.48029708862305 42.78442001342773 23.13474655151367 43.2089729309082 25.49919700622559 43.2089729309082 C 26.15185737609863 43.2089729309082 26.77951622009277 43.17581176757812 27.36476707458496 43.11041259765625 C 31.98229598999023 42.59445190429688 36.37135696411133 40.57598114013672 40.05743789672852 37.27322387695312 C 41.97944641113281 35.55107116699219 43.69204711914062 33.49567031860352 45.14766693115234 31.16409301757812 C 46.67865753173828 28.71176147460938 47.92595672607422 25.95138168334961 48.85489654541016 22.95962142944336 C 49.89081573486328 19.62331199645996 50.298828125 16.49110221862793 50.06758499145508 13.64997100830078 C 49.84552764892578 10.92162322998047 49.04227447509766 8.600601196289062 47.68014526367188 6.751380920410156 C 46.58306884765625 5.261981964111328 45.1287956237793 4.102870941162109 43.35774612426758 3.306251525878906 C 41.43076705932617 2.439479827880859 39.13116455078125 2 36.52283477783203 2 M 36.52283477783203 0 C 49.89330673217773 0 54.78357696533203 10.6102409362793 50.76493835449219 23.55269241333008 C 46.74631500244141 36.49513244628906 37.51528930664062 43.98865127563477 27.58686637878418 45.09804153442383 C 17.65847778320312 46.20744323730469 -3.814697265625e-06 38.94529342651367 -3.814697265625e-06 25.5748119354248 C -3.814697265625e-06 12.20433044433594 23.15234565734863 0 36.52283477783203 0 Z" stroke="none" fill="#fff"/>
          </g>
          <g id="Path_5170" data-name="Path 5170" transform="matrix(0.5, 0.866, -0.866, 0.5, 239.165, 121.124)" fill="none" opacity="0.6">
            <path d="M29.191.675c11.173-2.142,23.05.663,19.96,10.617C47.64,16.159,48.5,25.971,28.123,31.886,6.452,38.618,0,27.1,0,21.85,0,11.567,18.018,2.817,29.191.675Z" stroke="none"/>
            <path d="M 36.08020401000977 2 C 33.97047424316406 2 31.77937507629395 2.215019226074219 29.56777381896973 2.639091491699219 C 26.82677459716797 3.164661407470703 23.74247360229492 4.085678100585938 20.6483039855957 5.302570343017578 C 17.33804321289062 6.604440689086914 14.16644287109375 8.193899154663086 11.47637557983398 9.899110794067383 C 8.502044677734375 11.78450965881348 6.1695556640625 13.75774002075195 4.543693542480469 15.76397895812988 C 2.855823516845703 17.84675979614258 1.999992370605469 19.89444923400879 1.999992370605469 21.85015869140625 C 1.999992370605469 23.3559398651123 2.763935089111328 25.8768196105957 4.916934967041016 28.02576065063477 C 6.085353851318359 29.19195938110352 7.528312683105469 30.11470031738281 9.205753326416016 30.76833915710449 C 11.20370483398438 31.5468692779541 13.53451538085938 31.94161987304688 16.13345336914062 31.94161987304688 C 19.49666595458984 31.94161987304688 23.33074378967285 31.2802791595459 27.52918434143066 29.97597885131836 L 27.56488418579102 29.96525955200195 C 31.53567504882812 28.81237983703613 34.90993499755859 27.43207931518555 37.59395599365234 25.8626708984375 C 39.83761596679688 24.55076026916504 41.66511535644531 23.06541061401367 43.02568435668945 21.44789123535156 C 45.48351287841797 18.52586936950684 46.10674285888672 15.63438987731934 46.6566162109375 13.08329010009766 C 46.83890533447266 12.23752975463867 47.01109313964844 11.43868064880371 47.24088287353516 10.69861030578613 C 47.91434478759766 8.529640197753906 47.76195526123047 6.823970794677734 46.7750129699707 5.484100341796875 C 45.97886276245117 4.403251647949219 44.64333343505859 3.547039031982422 42.80551528930664 2.939250946044922 C 40.94750213623047 2.324790954589844 38.62193298339844 2 36.08020401000977 2 M 36.08020401000977 -3.814697265625e-06 C 44.64051055908203 -3.814697265625e-06 51.60203552246094 3.397567749023438 49.15093231201172 11.29166984558105 C 47.63963317871094 16.15895080566406 48.49585342407227 25.97077941894531 28.12253379821777 31.88594055175781 C 6.451564788818359 38.61833190917969 -7.62939453125e-06 27.10464859008789 -7.62939453125e-06 21.85015869140625 C -7.62939453125e-06 11.56740951538086 18.01789474487305 2.817298889160156 29.1911449432373 0.6748695373535156 C 31.50299453735352 0.2315826416015625 33.84690856933594 -3.814697265625e-06 36.08020401000977 -3.814697265625e-06 Z" stroke="none" fill="#fff"/>
          </g>
          <g id="Path_5171" data-name="Path 5171" transform="matrix(-0.292, -0.956, 0.956, -0.292, 58.144, 314.675)" fill="none" opacity="0.6">
            <path d="M183.463,57.043c7.953,0,17.42.563,15.03,8.261s3.144,25.779-6.06,28.493c-12.8,2.022-15.636-10.809-32.614-18.282s-36.1-11.721-50.663-11.3c-24.289.981-54.472,19.886-84.873,5.3C16.431,65.734,6.295,57.722,2.372,48.387-4.638,31.713,6.14,9.674,5.957,6.522,4.189-22.955,177.076,57.043,183.463,57.043Z" stroke="none"/>
            <path d="M 189.8306884765625 92.01062774658203 C 190.5160522460938 92.01062774658203 191.2400817871094 91.95417785644531 191.9849548339844 91.84276580810547 C 192.9210815429688 91.54197692871094 193.6555480957031 91.00274658203125 194.2274932861328 90.19718170166016 C 194.8195953369141 89.36326599121094 195.2680358886719 88.199462890625 195.5604248046875 86.73807525634766 C 196.1677398681641 83.70274353027344 196.0428161621094 79.82746124267578 195.9220123291016 76.07976531982422 C 195.7832336425781 71.77484893798828 195.6521606445312 67.70868682861328 196.5828704833984 64.71121215820312 C 197.2161865234375 62.67160034179688 196.6263427734375 61.87085342407227 196.4325103759766 61.60771179199219 C 195.9539947509766 60.95807266235352 194.7475738525391 60.07310104370117 191.7176513671875 59.54632568359375 C 189.1660766601562 59.10268402099609 186.1130981445312 59.04288101196289 183.4631805419922 59.04288101196289 C 181.7674865722656 59.04288101196289 176.3146514892578 56.87051773071289 155.5543212890625 48.30971145629883 C 135.2450408935547 39.93490600585938 107.4305419921875 28.46521186828613 80.91620635986328 18.9272403717041 C 66.43318176269531 13.71724033355713 53.89862823486328 9.660490036010742 43.6607666015625 6.869657039642334 C 31.80718231201172 3.638379335403442 22.67876625061035 1.999990463256836 16.52909851074219 1.999990463256836 C 11.56776523590088 1.999990463256836 9.535793304443359 3.05176830291748 8.70482063293457 3.934101581573486 C 8.341959953308105 4.319379329681396 7.869320869445801 4.994407176971436 7.954015254974365 6.406268119812012 C 8.015959739685059 7.47471284866333 7.563487529754639 8.95843505859375 6.534126758575439 12.21265697479248 C 5.281237602233887 16.1736011505127 3.387820959091187 22.1594352722168 2.502182006835938 28.57079696655273 C 2.022459983825684 32.04368591308594 1.886209845542908 35.3106575012207 2.097237586975098 38.28096389770508 C 2.340737581253052 41.70832443237305 3.053487539291382 44.84779739379883 4.215820789337158 47.61251831054688 C 5.894681930541992 51.60762786865234 9.001126289367676 55.73649215698242 13.19932079315186 59.55274200439453 C 16.82529258728027 62.84882354736328 21.06915473937988 65.74374389648438 25.14840507507324 67.70382690429688 C 32.59398651123047 71.2774658203125 40.50312805175781 73.01465606689453 49.32773590087891 73.01465606689453 C 60.87329483032227 73.01465606689453 72.14299011230469 70.06587982177734 83.0416259765625 67.21415710449219 C 92.22057342529297 64.81243133544922 100.8904876708984 62.54390716552734 109.0748748779297 62.21329498291016 L 109.0983505249023 62.21246337890625 C 109.7682113647461 62.19329452514648 110.4580688476562 62.18357467651367 111.1487350463867 62.18357467651367 C 125.765266418457 62.18357467651367 144.2606506347656 66.48329925537109 160.6239318847656 73.68532562255859 C 168.2448425292969 77.03954315185547 173.1964263916016 81.49407196044922 177.1750640869141 85.07334899902344 C 181.6518707275391 89.10079956054688 184.8864593505859 92.01065826416016 189.8306579589844 92.01062774658203 L 189.8306884765625 92.01062774658203 M 189.8306884765625 94.01062774658203 C 179.1584320068359 94.01071929931641 175.5818176269531 82.45392608642578 159.8182373046875 75.51585388183594 C 142.8401031494141 68.04320526123047 123.7162017822266 63.79459381103516 109.1556015014648 64.21165466308594 C 84.86640930175781 65.19281768798828 54.68357849121094 84.09815216064453 24.28298759460449 69.50690460205078 C 16.43118286132812 65.73407745361328 6.294543266296387 57.72160339355469 2.372015476226807 48.38735198974609 C -4.638095855712891 31.71321296691895 6.140098571777344 9.674101829528809 5.957376480102539 6.522018432617188 C 5.682356834411621 1.937843918800354 9.63895320892334 -9.256998509954428e-07 16.52909660339355 -9.256998509954428e-07 C 53.94354629516602 -9.256998509954428e-07 178.0697021484375 57.04288101196289 183.4631805419922 57.04288101196289 C 191.4160766601562 57.04288101196289 200.8832702636719 57.60593414306641 198.4929351806641 65.30426788330078 C 196.1026000976562 73.00257110595703 201.6367340087891 91.08351898193359 192.4327087402344 93.79740905761719 C 191.5174102783203 93.94200897216797 190.6529388427734 94.0106201171875 189.8306884765625 94.01062774658203 Z" stroke="none" fill="#fff"/>
          </g>
          <path id="Path_5172" data-name="Path 5172" d="M3.71.09s6.016,13.807,0,24.895S-3.025,49.459,17.2,56.224,54.788,60,72.42,73.23,91.208,75.1,90.087,64.362,83.983,40.688,58.2,48.1,9.369,26.945,25.486,0" transform="translate(186.2)" fill="none" stroke="#fff" stroke-width="2" opacity="0.6"/>
          <path id="Path_5173" data-name="Path 5173" d="M4.74,65.43a21.991,21.991,0,0,0-2.488-8.1c-6.016-11.088-.195-27.9,20.029-34.664S52.015,18.359,69.647,5.128s20.1,2.088,18.983,12.824-6.1,23.674-31.885,16.26c-20.16-5.8-38.652,10.411-38.042,30.862" transform="translate(324.899 271.741)" fill="none" stroke="#fff" stroke-width="2" opacity="0.6"/>
          <path id="Path_5174" data-name="Path 5174" d="M0,0S38.226,28.477,12.563,69.63c-.376.6-.894,1.4-1.438,2.2C5.377,78.817,11.8,98.107,33.651,85.4S57.238,66.544,59.724,55.673,63.741,22.78,97.465,36.62,141.987,22.98,141.107,0" transform="translate(311.399 11.1)" fill="none" stroke="#fff" stroke-width="2" opacity="0.6"/>
          <path id="Path_5175" data-name="Path 5175" d="M0,104.339S31.128,61.157,5.465,20c-.376-.6-.894-1.4-1.438-2.2C-1.721,10.818,4.7-8.473,26.553,4.231S53.674,38.589,56.165,47.288c1.273,5.566,6.712,17.463,16.522,21.9,8.9,4.026,25.471,2.23,37.806-2.754,25.278-10.214,31.494,14.927,30.614,37.907" transform="translate(135.436 232.982)" fill="none" stroke="#fff" stroke-width="2" opacity="0.6"/>
          <path id="Path_5176" data-name="Path 5176" d="M169.274,0s.632,32.154-13.659,46.384-28.595,20.034-49.2,11.153c-.344-.128-16.7-8.305-20.006,4.953S93.6,85.8,105.16,100.651s19.582,43.193,3.175,71.718c-16,27.811-44.72,47.517-92.235,19.665-1.068-.626-8.668-6.691-13.85,0s-2.5,38.253,19.594,45.684,45.546,5.515,68.8-15.959,34.534-23.063,45.635-16.817,29.389,25.927,13.479,54.917,18.091,59.133,44.794,66.491" transform="translate(303.698 10.969)" fill="none" stroke="#fff" stroke-width="2" opacity="0.6"/>
          <path id="Path_5177" data-name="Path 5177" d="M18.471,2.626c-7.743,5.037-23.492,27.654-16.893,62s24.228,37.692,44.578,35.49,57.656-1.364,77.219,7.854S155.9,94.173,126.1,85.542c-14.046-4.506-26.959-5.05-33.887-9.763-7.387-5.023-10.44-16.555-11.432-24.473-1.86-14.856-4.7-22.218-15.254-26.823-10.4-4.535-26.512,6.125-6.968,31.411.237.357,10.744,14.54-8.733,23.214S15.247,74.051,20.2,48.625,36.638,24.7,35.582,12.013,26.214-2.411,18.471,2.626Z" transform="translate(120.962 100.97)" fill="none" stroke="#fff" stroke-width="2" opacity="0.6"/>
          <path id="Path_5178" data-name="Path 5178" d="M0,57.174s31.378,1.584,45.545-21.392S41.241,2.118,39.122,0" transform="translate(64.243 11.003)" fill="none" stroke="#fff" stroke-width="2" opacity="0.495"/>
          <path id="Path_5179" data-name="Path 5179" d="M1.413,10.625c4.8,9.8,20.634-.574,17.158,20.952-1.47,9.105.6,20.217,8.138,23.444C36.453,59.193,53.6,53.4,61.061,51.566c12.924-3.177,8.5-16.915,8.366-17.46C51.4-6.178,5.569.4,5.569.4S-3.384.829,1.413,10.625Z" transform="translate(189.737 231.308)" fill="none" stroke="#fff" stroke-width="2" opacity="0.6"/>
          <g id="Path_5180" data-name="Path 5180" transform="translate(302.339 278.034)" fill="none" opacity="0.6">
            <path d="M7.5,0c5.522,0,15.281.65,16.139,7.908S13.024,20.189,7.5,20.189,0,15.945,0,10.95,1.981,0,7.5,0Z" stroke="none"/>
            <path d="M 7.502170562744141 1.999998092651367 C 5.732370376586914 1.999998092651367 4.398632049560547 2.843879699707031 3.424741744995117 4.579869270324707 C 2.51930046081543 6.193859100341797 2.000001907348633 8.515499114990234 2.000001907348633 10.94950866699219 C 2.000001907348633 13.22019863128662 2.455211639404297 15.06769943237305 3.316421508789062 16.29226875305176 C 4.214120864868164 17.56873893737793 5.583292007446289 18.18923950195312 7.502170562744141 18.18923950195312 C 9.196841239929199 18.18923950195312 11.5678014755249 17.61560821533203 13.84449100494385 16.6547794342041 C 16.41119003295898 15.57155895233154 18.58796119689941 14.1161994934082 19.97384071350098 12.55678939819336 C 21.26419067382812 11.1048583984375 21.82990074157715 9.619778633117676 21.65525054931641 8.142818450927734 C 21.50818061828613 6.899168968200684 21.01449203491211 5.887588500976562 20.14595031738281 5.05026912689209 C 19.33120155334473 4.264799118041992 18.16947174072266 3.619159698486328 16.69304084777832 3.131278991699219 C 14.38936138153076 2.370038986206055 11.38301086425781 1.999998092651367 7.502170562744141 1.999998092651367 M 7.502170562744141 -1.9073486328125e-06 C 13.02380084991455 -1.9073486328125e-06 22.78315162658691 0.6500797271728516 23.64141082763672 7.90794849395752 C 24.49966049194336 15.16580867767334 13.02380084991455 20.18923950195312 7.502170562744141 20.18923950195312 C 1.980541229248047 20.18923950195312 1.9073486328125e-06 15.94526863098145 1.9073486328125e-06 10.94950866699219 C 1.9073486328125e-06 5.953739166259766 1.980541229248047 -1.9073486328125e-06 7.502170562744141 -1.9073486328125e-06 Z" stroke="none" fill="#fff"/>
          </g>
          <g id="Path_5181" data-name="Path 5181" transform="translate(166.05 316.981)" fill="none" opacity="0.6">
            <path d="M19.819,0c14.587,0,40.37,1.717,42.637,20.891S34.406,53.336,19.819,53.336,0,42.124,0,28.927,5.232,0,19.819,0Z" stroke="none"/>
            <path d="M 19.8193244934082 2.000003814697266 C 13.93281555175781 2.000003814697266 9.34515380859375 4.857334136962891 6.183765411376953 10.49261093139648 C 4.790985107421875 12.97527313232422 3.719974517822266 15.92527389526367 3.000484466552734 19.26066207885742 C 2.345954895019531 22.29486274719238 1.999996185302734 25.63727188110352 1.999996185302734 28.92655181884766 C 1.999996185302734 32.18334197998047 2.332084655761719 35.17842102050781 2.987033843994141 37.82857131958008 C 3.672233581542969 40.60111236572266 4.711322784423828 42.99040222167969 6.075435638427734 44.93006134033203 C 7.502483367919922 46.95922088623047 9.312553405761719 48.52553176879883 11.45536422729492 49.58547210693359 C 13.80388259887695 50.74717330932617 16.61793518066406 51.33620071411133 19.8193244934082 51.33620071411133 C 24.71242523193359 51.33620071411133 31.45334625244141 49.72419357299805 37.85130310058594 47.02407073974609 C 45.07331466674805 43.97617340087891 51.24220275878906 39.8316535949707 55.22158432006836 35.35397338867188 C 59.28052520751953 30.78678131103516 61.04635620117188 25.99986267089844 60.47003555297852 21.12619400024414 C 60.22394561767578 19.04511260986328 59.65742492675781 17.11527252197266 58.78622436523438 15.39025115966797 C 57.97305297851562 13.78014373779297 56.86769485473633 12.29561233520508 55.50086212158203 10.97791290283203 C 52.99109649658203 8.558353424072266 49.50189208984375 6.599063873291016 45.13016510009766 5.154453277587891 C 41.4495735168457 3.938220977783203 37.06995391845703 3.064502716064453 32.11296463012695 2.557563781738281 C 28.44436264038086 2.182380676269531 24.4230842590332 2.000003814697266 19.8193244934082 2.000003814697266 M 19.8193244934082 3.814697265625e-06 C 34.40645599365234 3.814697265625e-06 60.1888427734375 1.717403411865234 62.45619583129883 20.89132308959961 C 64.72354125976562 40.06525421142578 34.40645599365234 53.33620071411133 19.8193244934082 53.33620071411133 C 5.232215881347656 53.33620071411133 -7.62939453125e-06 42.12442016601562 -7.62939453125e-06 28.92655181884766 C -7.62939453125e-06 15.72868347167969 5.232215881347656 3.814697265625e-06 19.8193244934082 3.814697265625e-06 Z" stroke="none" fill="#fff"/>
          </g>
        </g>
      </g>
      <g id="Group_6886" data-name="Group 6886" transform="translate(26.735 41.257)">
        <g id="eeeee" transform="translate(0 -10)" fill="#edf5ff">
          <path d="M 204.8412017822266 154.1373901367188 L 8.747675895690918 154.1373901367188 C 4.475592613220215 154.1373901367188 1.000009298324585 151.2037658691406 1.000009298324585 147.5978088378906 L 1.000009298324585 17.53961944580078 C 1.000009298324585 13.93367481231689 4.475592613220215 11.00000858306885 8.747675895690918 11.00000858306885 L 204.8412017822266 11.00000858306885 C 209.1132659912109 11.00000858306885 212.5888366699219 13.93367481231689 212.5888366699219 17.53961944580078 L 212.5888366699219 147.5978088378906 C 212.5888366699219 151.2037658691406 209.1132659912109 154.1373901367188 204.8412017822266 154.1373901367188 Z" stroke="none"/>
          <path d="M 8.747650146484375 12.00001525878906 C 5.0269775390625 12.00001525878906 2.000015258789062 14.48506164550781 2.000015258789062 17.53961181640625 L 2.000015258789062 147.5978088378906 C 2.000015258789062 150.65234375 5.0269775390625 153.1373901367188 8.747650146484375 153.1373901367188 L 204.8411712646484 153.1373901367188 C 208.5618438720703 153.1373901367188 211.5888366699219 150.65234375 211.5888366699219 147.5978088378906 L 211.5888366699219 17.53961181640625 C 211.5888366699219 14.48506164550781 208.5618438720703 12.00001525878906 204.8411712646484 12.00001525878906 L 8.747650146484375 12.00001525878906 M 8.747650146484375 10.00001525878906 L 204.8411712646484 10.00001525878906 C 209.6723937988281 10.00001525878906 213.5888366699219 13.37559509277344 213.5888366699219 17.53961181640625 L 213.5888366699219 147.5978088378906 C 213.5888366699219 151.7617797851562 209.6724243164062 155.1373901367188 204.8411712646484 155.1373901367188 L 8.747650146484375 155.1373901367188 C 3.916458129882812 155.1373901367188 1.52587890625e-05 151.7617797851562 1.52587890625e-05 147.5978088378906 L 1.52587890625e-05 17.53961181640625 C 1.52587890625e-05 13.37559509277344 3.916458129882812 10.00001525878906 8.747650146484375 10.00001525878906 Z" stroke="none" fill="#334051"/>
        </g>
        <g id="eeeee-2" data-name="eeeee" transform="translate(2.733 180.996)" fill="#fff">
          <path d="M 33.75917434692383 38.52487945556641 L 1.945834755897522 38.52487945556641 C 1.690704703330994 38.52487945556641 1.483144760131836 38.28543853759766 1.483144760131836 37.99111938476562 L 1.483144760131836 11.53376007080078 C 1.483144760131836 11.23943996429443 1.690704703330994 11 1.945834755897522 11 L 33.75917434692383 11 C 34.01430511474609 11 34.22186660766602 11.23943996429443 34.22186660766602 11.53376007080078 L 34.22186660766602 37.99111938476562 C 34.22186660766602 38.28543853759766 34.01430511474609 38.52487945556641 33.75917434692383 38.52487945556641 Z" stroke="none"/>
          <path d="M 2.483142852783203 12 L 2.483142852783203 37.52487945556641 L 33.22186279296875 37.52487945556641 L 33.22186279296875 12 L 2.483142852783203 12 M 1.945835113525391 10 L 33.75917434692383 10 C 34.56698608398438 10 35.22186660766602 10.68669128417969 35.22186660766602 11.53376007080078 L 35.22186660766602 37.99111938476562 C 35.22186660766602 38.83818817138672 34.56698608398438 39.52487945556641 33.75917434692383 39.52487945556641 L 1.945835113525391 39.52487945556641 C 1.138015747070312 39.52487945556641 0.4831428527832031 38.83818817138672 0.4831428527832031 37.99111938476562 L 0.4831428527832031 11.53376007080078 C 0.4831428527832031 10.68669128417969 1.138015747070312 10 1.945835113525391 10 Z" stroke="none" fill="#334051"/>
        </g>
        <g id="eeeee-3" data-name="eeeee" transform="translate(46.126 180.996)" fill="#fff">
          <path d="M 33.75917434692383 38.52487945556641 L 1.945834755897522 38.52487945556641 C 1.690704703330994 38.52487945556641 1.483144760131836 38.28543853759766 1.483144760131836 37.99111938476562 L 1.483144760131836 11.53376007080078 C 1.483144760131836 11.23943996429443 1.690704703330994 11 1.945834755897522 11 L 33.75917434692383 11 C 34.01430511474609 11 34.22186660766602 11.23943996429443 34.22186660766602 11.53376007080078 L 34.22186660766602 37.99111938476562 C 34.22186660766602 38.28543853759766 34.01430511474609 38.52487945556641 33.75917434692383 38.52487945556641 Z" stroke="none"/>
          <path d="M 2.483142852783203 12 L 2.483142852783203 37.52487945556641 L 33.22186279296875 37.52487945556641 L 33.22186279296875 12 L 2.483142852783203 12 M 1.945835113525391 10 L 33.75917434692383 10 C 34.56698608398438 10 35.22186660766602 10.68669128417969 35.22186660766602 11.53376007080078 L 35.22186660766602 37.99111938476562 C 35.22186660766602 38.83818817138672 34.56698608398438 39.52487945556641 33.75917434692383 39.52487945556641 L 1.945835113525391 39.52487945556641 C 1.138015747070312 39.52487945556641 0.4831428527832031 38.83818817138672 0.4831428527832031 37.99111938476562 L 0.4831428527832031 11.53376007080078 C 0.4831428527832031 10.68669128417969 1.138015747070312 10 1.945835113525391 10 Z" stroke="none" fill="#334051"/>
        </g>
        <g id="eeeee-4" data-name="eeeee" transform="translate(89.518 180.996)" fill="#fff">
          <path d="M 33.75917434692383 38.52487945556641 L 1.945834755897522 38.52487945556641 C 1.690704703330994 38.52487945556641 1.483144760131836 38.28543853759766 1.483144760131836 37.99111938476562 L 1.483144760131836 11.53376007080078 C 1.483144760131836 11.23943996429443 1.690704703330994 11 1.945834755897522 11 L 33.75917434692383 11 C 34.01430511474609 11 34.22186660766602 11.23943996429443 34.22186660766602 11.53376007080078 L 34.22186660766602 37.99111938476562 C 34.22186660766602 38.28543853759766 34.01430511474609 38.52487945556641 33.75917434692383 38.52487945556641 Z" stroke="none"/>
          <path d="M 2.483142852783203 12 L 2.483142852783203 37.52487945556641 L 33.22186279296875 37.52487945556641 L 33.22186279296875 12 L 2.483142852783203 12 M 1.945835113525391 10 L 33.75917434692383 10 C 34.56698608398438 10 35.22186660766602 10.68669128417969 35.22186660766602 11.53376007080078 L 35.22186660766602 37.99111938476562 C 35.22186660766602 38.83818817138672 34.56698608398438 39.52487945556641 33.75917434692383 39.52487945556641 L 1.945835113525391 39.52487945556641 C 1.138015747070312 39.52487945556641 0.4831428527832031 38.83818817138672 0.4831428527832031 37.99111938476562 L 0.4831428527832031 11.53376007080078 C 0.4831428527832031 10.68669128417969 1.138015747070312 10 1.945835113525391 10 Z" stroke="none" fill="#334051"/>
        </g>
        <path id="eeeee-5" data-name="eeeee" d="M3.411,10H67.085c1.617,0,2.928.343,2.928.767V24c0,.424-1.311.767-2.928.767H3.411C1.794,24.763.483,24.419.483,24V10.767C.483,10.343,1.794,10,3.411,10Z" transform="translate(139.208 180.996)" fill="#fff"/>
        <g id="eeeee-6" data-name="eeeee" transform="translate(2.733 216.316)" fill="#fff">
          <path d="M 33.75917434692383 38.52487945556641 L 1.945834755897522 38.52487945556641 C 1.690704703330994 38.52487945556641 1.483144760131836 38.28543853759766 1.483144760131836 37.99111938476562 L 1.483144760131836 11.53376007080078 C 1.483144760131836 11.23943996429443 1.690704703330994 11 1.945834755897522 11 L 33.75917434692383 11 C 34.01430511474609 11 34.22186660766602 11.23943996429443 34.22186660766602 11.53376007080078 L 34.22186660766602 37.99111938476562 C 34.22186660766602 38.28543853759766 34.01430511474609 38.52487945556641 33.75917434692383 38.52487945556641 Z" stroke="none"/>
          <path d="M 2.483142852783203 12 L 2.483142852783203 37.52487945556641 L 33.22186279296875 37.52487945556641 L 33.22186279296875 12 L 2.483142852783203 12 M 1.945835113525391 10 L 33.75917434692383 10 C 34.56698608398438 10 35.22186660766602 10.68669128417969 35.22186660766602 11.53376007080078 L 35.22186660766602 37.99111938476562 C 35.22186660766602 38.83818817138672 34.56698608398438 39.52487945556641 33.75917434692383 39.52487945556641 L 1.945835113525391 39.52487945556641 C 1.138015747070312 39.52487945556641 0.4831428527832031 38.83818817138672 0.4831428527832031 37.99111938476562 L 0.4831428527832031 11.53376007080078 C 0.4831428527832031 10.68669128417969 1.138015747070312 10 1.945835113525391 10 Z" stroke="none" fill="#334051"/>
        </g>
        <g id="eeeee-7" data-name="eeeee" transform="translate(46.126 216.316)" fill="#fff">
          <path d="M 33.75917434692383 38.52487945556641 L 1.945834755897522 38.52487945556641 C 1.690704703330994 38.52487945556641 1.483144760131836 38.28543853759766 1.483144760131836 37.99111938476562 L 1.483144760131836 11.53376007080078 C 1.483144760131836 11.23943996429443 1.690704703330994 11 1.945834755897522 11 L 33.75917434692383 11 C 34.01430511474609 11 34.22186660766602 11.23943996429443 34.22186660766602 11.53376007080078 L 34.22186660766602 37.99111938476562 C 34.22186660766602 38.28543853759766 34.01430511474609 38.52487945556641 33.75917434692383 38.52487945556641 Z" stroke="none"/>
          <path d="M 2.483142852783203 12 L 2.483142852783203 37.52487945556641 L 33.22186279296875 37.52487945556641 L 33.22186279296875 12 L 2.483142852783203 12 M 1.945835113525391 10 L 33.75917434692383 10 C 34.56698608398438 10 35.22186660766602 10.68669128417969 35.22186660766602 11.53376007080078 L 35.22186660766602 37.99111938476562 C 35.22186660766602 38.83818817138672 34.56698608398438 39.52487945556641 33.75917434692383 39.52487945556641 L 1.945835113525391 39.52487945556641 C 1.138015747070312 39.52487945556641 0.4831428527832031 38.83818817138672 0.4831428527832031 37.99111938476562 L 0.4831428527832031 11.53376007080078 C 0.4831428527832031 10.68669128417969 1.138015747070312 10 1.945835113525391 10 Z" stroke="none" fill="#334051"/>
        </g>
        <g id="eeeee-8" data-name="eeeee" transform="translate(89.518 216.316)" fill="#fff">
          <path d="M 33.75917434692383 38.52487945556641 L 1.945834755897522 38.52487945556641 C 1.690704703330994 38.52487945556641 1.483144760131836 38.28543853759766 1.483144760131836 37.99111938476562 L 1.483144760131836 11.53376007080078 C 1.483144760131836 11.23943996429443 1.690704703330994 11 1.945834755897522 11 L 33.75917434692383 11 C 34.01430511474609 11 34.22186660766602 11.23943996429443 34.22186660766602 11.53376007080078 L 34.22186660766602 37.99111938476562 C 34.22186660766602 38.28543853759766 34.01430511474609 38.52487945556641 33.75917434692383 38.52487945556641 Z" stroke="none"/>
          <path d="M 2.483142852783203 12 L 2.483142852783203 37.52487945556641 L 33.22186279296875 37.52487945556641 L 33.22186279296875 12 L 2.483142852783203 12 M 1.945835113525391 10 L 33.75917434692383 10 C 34.56698608398438 10 35.22186660766602 10.68669128417969 35.22186660766602 11.53376007080078 L 35.22186660766602 37.99111938476562 C 35.22186660766602 38.83818817138672 34.56698608398438 39.52487945556641 33.75917434692383 39.52487945556641 L 1.945835113525391 39.52487945556641 C 1.138015747070312 39.52487945556641 0.4831428527832031 38.83818817138672 0.4831428527832031 37.99111938476562 L 0.4831428527832031 11.53376007080078 C 0.4831428527832031 10.68669128417969 1.138015747070312 10 1.945835113525391 10 Z" stroke="none" fill="#334051"/>
        </g>
        <g id="eeeee-9" data-name="eeeee" transform="translate(2.733 251.636)" fill="#fff">
          <path d="M 33.75917434692383 38.52487945556641 L 1.945834755897522 38.52487945556641 C 1.690704703330994 38.52487945556641 1.483144760131836 38.28543853759766 1.483144760131836 37.99111938476562 L 1.483144760131836 11.53376007080078 C 1.483144760131836 11.23943996429443 1.690704703330994 11 1.945834755897522 11 L 33.75917434692383 11 C 34.01430511474609 11 34.22186660766602 11.23943996429443 34.22186660766602 11.53376007080078 L 34.22186660766602 37.99111938476562 C 34.22186660766602 38.28543853759766 34.01430511474609 38.52487945556641 33.75917434692383 38.52487945556641 Z" stroke="none"/>
          <path d="M 2.483142852783203 12 L 2.483142852783203 37.52487945556641 L 33.22186279296875 37.52487945556641 L 33.22186279296875 12 L 2.483142852783203 12 M 1.945835113525391 10 L 33.75917434692383 10 C 34.56698608398438 10 35.22186660766602 10.68669128417969 35.22186660766602 11.53376007080078 L 35.22186660766602 37.99111938476562 C 35.22186660766602 38.83818817138672 34.56698608398438 39.52487945556641 33.75917434692383 39.52487945556641 L 1.945835113525391 39.52487945556641 C 1.138015747070312 39.52487945556641 0.4831428527832031 38.83818817138672 0.4831428527832031 37.99111938476562 L 0.4831428527832031 11.53376007080078 C 0.4831428527832031 10.68669128417969 1.138015747070312 10 1.945835113525391 10 Z" stroke="none" fill="#334051"/>
        </g>
        <g id="eeeee-10" data-name="eeeee" transform="translate(46.126 251.636)" fill="#fff">
          <path d="M 33.75917434692383 38.52487945556641 L 1.945834755897522 38.52487945556641 C 1.690704703330994 38.52487945556641 1.483144760131836 38.28543853759766 1.483144760131836 37.99111938476562 L 1.483144760131836 11.53376007080078 C 1.483144760131836 11.23943996429443 1.690704703330994 11 1.945834755897522 11 L 33.75917434692383 11 C 34.01430511474609 11 34.22186660766602 11.23943996429443 34.22186660766602 11.53376007080078 L 34.22186660766602 37.99111938476562 C 34.22186660766602 38.28543853759766 34.01430511474609 38.52487945556641 33.75917434692383 38.52487945556641 Z" stroke="none"/>
          <path d="M 2.483142852783203 12 L 2.483142852783203 37.52487945556641 L 33.22186279296875 37.52487945556641 L 33.22186279296875 12 L 2.483142852783203 12 M 1.945835113525391 10 L 33.75917434692383 10 C 34.56698608398438 10 35.22186660766602 10.68669128417969 35.22186660766602 11.53376007080078 L 35.22186660766602 37.99111938476562 C 35.22186660766602 38.83818817138672 34.56698608398438 39.52487945556641 33.75917434692383 39.52487945556641 L 1.945835113525391 39.52487945556641 C 1.138015747070312 39.52487945556641 0.4831428527832031 38.83818817138672 0.4831428527832031 37.99111938476562 L 0.4831428527832031 11.53376007080078 C 0.4831428527832031 10.68669128417969 1.138015747070312 10 1.945835113525391 10 Z" stroke="none" fill="#334051"/>
        </g>
        <g id="eeeee-11" data-name="eeeee" transform="translate(89.518 251.636)" fill="#fff">
          <path d="M 33.75917434692383 38.52487945556641 L 1.945834755897522 38.52487945556641 C 1.690704703330994 38.52487945556641 1.483144760131836 38.28543853759766 1.483144760131836 37.99111938476562 L 1.483144760131836 11.53376007080078 C 1.483144760131836 11.23943996429443 1.690704703330994 11 1.945834755897522 11 L 33.75917434692383 11 C 34.01430511474609 11 34.22186660766602 11.23943996429443 34.22186660766602 11.53376007080078 L 34.22186660766602 37.99111938476562 C 34.22186660766602 38.28543853759766 34.01430511474609 38.52487945556641 33.75917434692383 38.52487945556641 Z" stroke="none"/>
          <path d="M 2.483142852783203 12 L 2.483142852783203 37.52487945556641 L 33.22186279296875 37.52487945556641 L 33.22186279296875 12 L 2.483142852783203 12 M 1.945835113525391 10 L 33.75917434692383 10 C 34.56698608398438 10 35.22186660766602 10.68669128417969 35.22186660766602 11.53376007080078 L 35.22186660766602 37.99111938476562 C 35.22186660766602 38.83818817138672 34.56698608398438 39.52487945556641 33.75917434692383 39.52487945556641 L 1.945835113525391 39.52487945556641 C 1.138015747070312 39.52487945556641 0.4831428527832031 38.83818817138672 0.4831428527832031 37.99111938476562 L 0.4831428527832031 11.53376007080078 C 0.4831428527832031 10.68669128417969 1.138015747070312 10 1.945835113525391 10 Z" stroke="none" fill="#334051"/>
        </g>
        <text id="WELCOME" transform="translate(106.794 79.069)" fill="#334051" font-size="21" font-family="Avenir-Black, Avenir" font-weight="800"><tspan x="-55" y="0">WELCOME</tspan></text>
      </g>
    </g>
    <path id="Union_52" data-name="Union 52" d="M2240.348,257.747a30.508,30.508,0,0,1-19.122-8.467c-20.781-19.561-62.413-90.444-69.954-103.419-8.8-10.423-21.139-25.093-23.284-27.924-3.395-4.483-8.2-9.462-11.911-17.919-1.742-3.9-6.054-14.311-3.3-16.836,2.245-2.336,4.219,3.691,4.219,3.691s1.849,3.163,5.182,9.47a85.579,85.579,0,0,0,6.412,9.728c2.81,3.787.64-.409.64-.409l-6.942-10.906s-7.761-20.683-4.082-25.187,5.812,7.636,8.364,14.578c1.4,3.8,5.716,10.726,9.187,15.988,3.162,4.791,3.314,4.259.636-.852-3.525-6.728-7.547-15.032-8.83-20.245-2.353-9.549-1.1-16.49-.042-19.623s6.8-8.711,6.632,1.289c.016.43.041.868.054,1.031.8,10.651,6.795,24.633,10.762,32.838,2.318,4.793,2.668,3.606,1.2-1.165-2.129-6.93-4.619-15.164-5.209-17.672-1.025-4.337-2.781-21.125,1.843-26.143s8.262-1.81,7.141,2.971c-2.348,26.275,8.459,39.2,8.459,39.2l2.858,5.277c1.017-2.062,1.717-3.473,1.717-3.473s-.885-16.1,4.53-20.255,4.75,10.866,4.75,10.866l-.652,31.958,4.279,7.9c.065-.04.1-.058.109-.051,8.1,12.121,48.05,49.182,73.76,80.278.812-.622,1.292-.948,1.292-.948s59.16-66.04,71.7-72.34,31.061-4.992,31.061-4.992l13.008,62.709c-13.53,9.411-55.484,33.8-81.128,52.1-17.63,12.585-32.708,17.276-41.633,17.276A19.033,19.033,0,0,1,2240.348,257.747ZM2435.792-12.868s-10.542-10.715-3.741-11.254S2448.97-12.1,2448.97-12.1s19.73,7.809,19.935,8.246l-9.6,16.054Z" transform="translate(-883.148 355.707)" fill="#fff" stroke="#334051" stroke-width="2"/>
    <g id="Group_6890" data-name="Group 6890" transform="translate(-4.381 189.004) rotate(-13)">
      <rect id="Rectangle_242" data-name="Rectangle 242" width="246.17" height="187.65" rx="20" transform="matrix(0, -1, 1, 0, 1370.04, 519.349)" fill="#edf5ff"/>
      <g id="Mask_Group_5" data-name="Mask Group 5" transform="matrix(0, -1, 1, 0, 1370.222, 519.525)" clip-path="url(#clip-path-2)">
        <path id="Path_5263" data-name="Path 5263" d="M245.964,176.272c-27.58-.1-106.864-11.32-126.232-96.748S29.8.091,29.8.091H0V191.076H245.964Z" transform="translate(0 -3.607)" fill="rgba(192,210,232,0.63)"/>
      </g>
      <text id="INVOICE" transform="translate(1459.501 325.308)" fill="#334051" font-size="21" font-family="Avenir-Black, Avenir" font-weight="800" opacity="0.374"><tspan x="-44" y="0">INVOICE</tspan></text>
      <g id="eeeee-12" data-name="eeeee" transform="translate(1396.128 338.783)" fill="none">
        <path d="M5.483,10H128.4c3.028,0,5.483,3.513,5.483,7.847V153.206c0,4.334-2.455,7.847-5.483,7.847H5.483c-3.028,0-5.483-3.513-5.483-7.847V17.847C0,13.513,2.455,10,5.483,10Z" stroke="none"/>
        <path d="M 5.483383178710938 12 C 4.414093017578125 12 3.62225341796875 12.90464782714844 3.245437622070312 13.44390869140625 C 2.453948974609375 14.57655334472656 2 16.18138122558594 2 17.84687805175781 L 2 153.20556640625 C 2 154.8710632324219 2.453948974609375 156.4758758544922 3.245437622070312 157.6085205078125 C 3.62225341796875 158.1477813720703 4.414093017578125 159.0524291992188 5.483383178710938 159.0524291992188 L 128.4025421142578 159.0524291992188 C 129.4718322753906 159.0524291992188 130.263671875 158.1477813720703 130.6404876708984 157.6085205078125 C 131.4319763183594 156.4758758544922 131.8859252929688 154.8710632324219 131.8859252929688 153.20556640625 L 131.8859252929688 17.84687805175781 C 131.8859252929688 16.18138122558594 131.4319763183594 14.57655334472656 130.6404876708984 13.44390869140625 C 130.263671875 12.90464782714844 129.4718322753906 12 128.4025421142578 12 L 5.483383178710938 12 M 5.483383178710938 10 L 128.4025421142578 10 C 131.4309387207031 10 133.8859252929688 13.51316833496094 133.8859252929688 17.84687805175781 L 133.8859252929688 153.20556640625 C 133.8859252929688 157.5392303466797 131.4309387207031 161.0524291992188 128.4025421142578 161.0524291992188 L 5.483383178710938 161.0524291992188 C 2.454986572265625 161.0524291992188 0 157.5392303466797 0 153.20556640625 L 0 17.84687805175781 C 0 13.51316833496094 2.454986572265625 10 5.483383178710938 10 Z" stroke="none" fill="#9ca9ae"/>
      </g>
    </g>
    <path id="Union_35" data-name="Union 35" d="M2517.434,282.714c-3.2-17.977,5.99-78.667,7.44-96.865,1.068-13.4,1.389-30.611,1.484-38.747l-3.577-21.255-20.189-24.782s-9.769-11.423-2.947-11.486,16.04,13.172,16.04,13.172,1.421.68,3.491,1.679l-1-5.918s.554-16.843-17.472-36.1c-3.826-3.077-2.935-7.845,3.8-6.737s15.685,15.417,17.547,19.466c1.078,2.339,4.186,10.361,6.775,17.132,1.782,4.661,2.79,5.38,1.665.177-1.925-8.909-5.806-23.62-11.737-32.5-.09-.137-.34-.5-.592-.846-6.289-7.777,1.673-6.919,4.433-5.1s8.022,6.516,12.047,15.489c2.2,4.9,4.142,13.917,5.506,21.389,1.037,5.676,1.484,6,1.026.28-.5-6.283-1.365-14.4-2.6-18.255-2.264-7.042-8.057-17.923-2.385-16.637s12.29,22.361,12.29,22.361l1.246,12.868s.872,4.642.755-.072a85.573,85.573,0,0,0-.936-11.614c-1.257-7.023-1.747-10.653-1.747-10.653s-2.154-5.964,1.053-5.506c3.726.294,6.734,11.149,7.765,15.3,2.283,8.949,1.562,15.83,1.646,21.453.072,4.775-1.2,37.757-1.59,47.6,3.362,26.539,6.983,78.013,14.869,127.407.142.236,7.336,28.518-27.147,36.449a28.17,28.17,0,0,1-3.389.213C2526.449,312.07,2520.41,299.448,2517.434,282.714Z" transform="matrix(0.998, -0.07, 0.07, 0.998, -950.549, 420.697)" fill="#fff" stroke="#334051" stroke-width="2"/>
    <path id="Union_43" data-name="Union 43" d="M2351.724,339.619V301.43l-14.074-76.767,42.433-33.057-8.629-60.138H2404.6a30.211,30.211,0,0,0,.3,14.314,17.393,17.393,0,0,1,.669-2.286V119.4c-8.956-6.018-12.029-16.125-12.247-24.323-.337-12.686,0-42.771,0-42.771s-2.061-15.854,29.394-16,30.821,16,30.821,16V95.082a42.217,42.217,0,0,1-1.856,8.679c1.181,6.642,4.095,23.294,5.52,33.857a30.14,30.14,0,0,0,.531-6.151h35.55s53.2,2.28,43.935,46.286c-.121.572-.241,1.138-.417,1.948-6.1,20.622-10.027,46.66-10.027,46.66l-15.389,75.069v38.189Z" transform="translate(-901.088 350.381)" fill="#fff" stroke="#334051" stroke-width="2"/>
    <path id="Union_60" data-name="Union 60" d="M2138.191,131.467h33.847s2.4,15.7,26.016,15.93,25.267-15.93,25.267-15.93H2259.4s52.78,1.34,43.518,45.345c-.12.572.176,2.078,0,2.889-4.532,20.569-10.026,46.659-10.026,46.659L2277.5,301.43l4.056,52.246H2114.279l3.565-52.246-14.074-76.768s-7.793-66.9-2.729-81.634S2138.191,131.467,2138.191,131.467Z" transform="translate(-667.207 350.381)" fill="#334051"/>
    <path id="Path_5348" data-name="Path 5348" d="M68.695,7.505c17.165,4.662,5.829,35.584,3.411,46.441-1.366,5.2-6.752,27.245-8.595,27.69-4.262,1.028-12.265,6.819-29.869-.721a9.722,9.722,0,0,1-1.457-.6c-.457-10.632-9.493-16.023-13.219-22.849-2.847-5.217.968-15.978-2.118-18.244a13.893,13.893,0,0,0-1.455-.921C8.642,34.587,4.61,36.361-4.8,29.21S-19.837-.7,1.844-8.921C7.787,2.421,25.927-.185,31.179-.128,45.117-.9,60.323-5.212,66.611,7.624,66.863,7.722,68.178,7.3,68.695,7.505Z" transform="matrix(0.998, -0.07, 0.07, 0.998, 1486.029, 382.059)" fill="#334051"/>
    <path id="Path_1" data-name="Path 1" d="M329.845,691.663h918.874" transform="translate(428.004 63.965)" fill="none" stroke="#334051" stroke-linecap="round" stroke-width="2"/>
    <path id="Union_61" data-name="Union 61" d="M221.835,83.277c-10.58,7.36-31.857,20.053-56.025,35.8-1.577-.7-24.62-30-36.084-47.007l1.034-1.108c17.508-18.751,39.85-41.8,47.005-45.4,12.538-6.3,31.062-4.993,31.062-4.993Z" transform="translate(1261.314 461.125)" fill="#334051"/>
  </g>
</svg>
