<svg id="Group_6778" data-name="Group 6778" xmlns="http://www.w3.org/2000/svg" xmlns:xlink="http://www.w3.org/1999/xlink" width="41.036" height="50.91" viewBox="0 0 41.036 50.91">
  <defs>
    <linearGradient id="linear-gradient" x1="0.5" x2="0.5" y2="1" gradientUnits="objectBoundingBox">
      <stop offset="0" stop-color="#dbdbdb"/>
      <stop offset="1" stop-color="#c7c7c7"/>
    </linearGradient>
    <linearGradient id="linear-gradient-3" x1="0.301" y1="0.027" x2="0.921" y2="0.914" gradientUnits="objectBoundingBox">
      <stop offset="0" stop-color="#fdd43a"/>
      <stop offset="1" stop-color="#f2af30"/>
    </linearGradient>
  </defs>
  <g id="Group_6707" data-name="Group 6707" transform="translate(0 0)">
    <g id="salary" transform="translate(0)">
      <g id="Group_6706" data-name="Group 6706">
        <g id="Group_6688" data-name="Group 6688">
          <g id="Group_6683" data-name="Group 6683" transform="translate(2.386 5.537)">
            <g id="Group_6681" data-name="Group 6681">
              <path id="Path_5121" data-name="Path 5121" d="M142.155,52.489a.911.911,0,0,1-.735-.372,4.938,4.938,0,0,0-4.627-2.172,9.162,9.162,0,0,1-5.986-1.36.912.912,0,1,1,.982-1.537,7.354,7.354,0,0,0,4.811,1.083,6.784,6.784,0,0,1,6.29,2.9.912.912,0,0,1-.734,1.453Z" transform="translate(-130.385 -46.905)" fill="url(#linear-gradient)"/>
            </g>
            <g id="Group_6682" data-name="Group 6682" transform="translate(1.31 4.937)">
              <path id="Path_5122" data-name="Path 5122" d="M142.4,94.215a.912.912,0,0,1-.776-1.389c1.169-1.9,3.311-3.213,6.2-3.785a16.536,16.536,0,0,1,3.941-.3.912.912,0,0,1-.124,1.82c-.063,0-6.256-.371-8.458,3.217a.911.911,0,0,1-.778.435Z" transform="translate(-141.487 -88.726)" fill="url(#linear-gradient)"/>
            </g>
          </g>
          <g id="Group_6687" data-name="Group 6687">
            <g id="Group_6686" data-name="Group 6686">
              <path id="Union_25" data-name="Union 25" d="M14.438,50.91c-15.26,0-23.626-23,1.9-40.048l.359-.238h0c-.117-.155-5.861-7.79-4.162-9.977.589-.758,1.085.284,2.3.284C16.255.93,16.255,0,17.676,0c1.351,0,1.417.842,2.644.923v0c.058,0,.116.008.178.008h.019c1.42,0,1.42-.93,2.842-.93S24.78.93,26.2.93C27.41.93,27.909-.1,28.494.659c1.716,2.222-4.251,9.966-4.251,9.966C50.3,27.752,41.975,50.91,26.6,50.91H14.438Z" fill="url(#linear-gradient-3)"/>
              <g id="Group_6685" data-name="Group 6685" transform="translate(13.404 9.022)">
                <path id="Path_5125" data-name="Path 5125" d="M235.671,80.782a20.757,20.757,0,0,1-10.36,0,2.212,2.212,0,0,1-1.457-2.9l.015-.041a2.041,2.041,0,0,1,2.409-1.361,16.867,16.867,0,0,0,8.426,0,2.041,2.041,0,0,1,2.409,1.361l.015.041A2.212,2.212,0,0,1,235.671,80.782Z" transform="translate(-223.723 -76.425)" fill="url(#linear-gradient)"/>
              </g>
            </g>
          </g>
        </g>
        <g id="Group_6705" data-name="Group 6705" transform="translate(24.024 45.204)">
          <g id="Group_6704" data-name="Group 6704">
            <g id="Group_6703" data-name="Group 6703">
              <g id="Group_6702" data-name="Group 6702">
                <g id="Group_6701" data-name="Group 6701">
                  <g id="Group_6700" data-name="Group 6700">
                    <g id="Group_6699" data-name="Group 6699">
                      <g id="Group_6698" data-name="Group 6698">
                        <g id="Group_6697" data-name="Group 6697">
                          <g id="Group_6696" data-name="Group 6696">
                            <g id="Group_6695" data-name="Group 6695">
                              <g id="Group_6694" data-name="Group 6694">
                                <g id="Group_6690" data-name="Group 6690">
                                  <path id="Path_5129" data-name="Path 5129" d="M313.69,382.938V383l.043-.019Z" transform="translate(-313.69 -382.938)" fill="#f5dbcc"/>
                                </g>
                              </g>
                            </g>
                          </g>
                        </g>
                      </g>
                    </g>
                  </g>
                </g>
              </g>
            </g>
          </g>
        </g>
      </g>
    </g>
    <path id="Icon_awesome-rupee-sign" data-name="Icon awesome-rupee-sign" d="M8.863,4.092a.345.345,0,0,0,.345-.345V2.6a.345.345,0,0,0-.345-.345H.345A.345.345,0,0,0,0,2.6V3.883a.345.345,0,0,0,.345.345H2.8a2.076,2.076,0,0,1,1.754.784H.345A.345.345,0,0,0,0,5.358V6.509a.345.345,0,0,0,.345.345H4.914A1.989,1.989,0,0,1,2.762,8.541H.345A.345.345,0,0,0,0,8.887v1.525a.345.345,0,0,0,.111.254l4.75,4.384a.345.345,0,0,0,.234.092H7.471a.345.345,0,0,0,.234-.6L3.363,10.535a3.942,3.942,0,0,0,3.98-3.681h1.52a.345.345,0,0,0,.345-.345V5.358a.345.345,0,0,0-.345-.345H7.174a3.942,3.942,0,0,0-.41-.921Z" transform="translate(16.062 23.214)" fill="#3e3d40"/>
  </g>
</svg>
