<svg xmlns="http://www.w3.org/2000/svg" width="59.498" height="27.398" viewBox="0 0 59.498 27.398">
  <g id="Group_6779" data-name="Group 6779" transform="translate(0 0.001)">
    <path id="Path_5146" data-name="Path 5146" d="M5.223,22.906A32.037,32.037,0,0,1,6.8,27.456l1.438-2.52.227-12.513S2.3,7.065,1.375,4.416A4.653,4.653,0,0,1,1.955,0,154.783,154.783,0,0,0,16.112,12.7c1.04.771,1.271,2.552,2.045,4.758a4.144,4.144,0,0,1,2.85,3.9c1.929,1.659,1.548,3.552,1.456,6.921-.065,2.356-.2,11.354-.1,14.794.11,3.579.775,8.346,1.041,14.859l-11.967.078a117.057,117.057,0,0,0-.415-14.144c-.1-1.307-4.041-5.088-5.791-8.292S1.181,21.376,0,20.431c.468-1,.868-2.436,3.334-.707C4.487,20.533,4.176,21.049,5.223,22.906Z" transform="matrix(-0.07, 0.998, -0.998, -0.07, 59.498, 4.046)" fill="#ffb680"/>
    <path id="Path_14" data-name="Path 14" d="M4.359,8.739A31.265,31.265,0,0,1,.481,4.222C-.6,2.418.481,0,.481,0L7.362,6.5Z" transform="matrix(-0.07, 0.998, -0.998, -0.07, 54.427, 6.431)" fill="#ec8b56"/>
    <path id="Path_15" data-name="Path 15" d="M7.161,24.936l.227-12.513S1.22,7.065.3,4.416A4.653,4.653,0,0,1,.879,0,154.782,154.782,0,0,0,15.036,12.7c1.04.771,1.271,2.552,2.045,4.758a4.144,4.144,0,0,1,2.85,3.9c1.929,1.659,1.548,3.552,1.456,6.921-.065,2.356-.2,11.354-.1,14.794.11,3.579.775,8.346,1.041,14.859l-11.967.078a101.829,101.829,0,0,0-.414-13.333C9.849,43.367,4.521,30.319,7.161,24.936Z" transform="matrix(-0.07, 0.998, -0.998, -0.07, 59.423, 5.108)" fill="#ffb680"/>
    <path id="Path_16" data-name="Path 16" d="M10.2,0c1.33.211,2.656.425,3.967.706L12.192,4.382S6.316,5.656,4.04,5.99A3.874,3.874,0,0,1,0,3.73S4.073,2.161,4.891,1.953C5.389,1.827,8.633.623,10.2,0Z" transform="matrix(-0.07, 0.998, -0.998, -0.07, 41.074, 4.693)" fill="#ffb680"/>
    <path id="Path_17" data-name="Path 17" d="M6.3,2.069c1.973-1,5.77-2.851,7.4-1.709.745.521,3.7,4.7,4.885,6.414-1.922-.4-3.871-.667-5.822-1L11.611,4.754A43.886,43.886,0,0,1,4.347,6.81C.814,7.364,0,4.669,0,4.669S4.332,3.064,6.3,2.069Z" transform="matrix(-0.07, 0.998, -0.998, -0.07, 48.532, 1.071)" fill="#ffb680"/>
    <path id="Path_18" data-name="Path 18" d="M.458,1.265,6.43,0a5.343,5.343,0,0,1,.484,5.559c-.373.8-2.99,6.449-3.178,8.429-.225,2.363,1.731,5.031,1.731,5.031s-3.089-2.526-2.948-5.078,2-9.509,2-9.509L0,3.306Z" transform="matrix(-0.07, 0.998, -0.998, -0.07, 36.3, 10.136)" fill="#ec8b56"/>
    <path id="Path_19" data-name="Path 19" d="M0,3.5l4.41-1.49L.064,0Z" transform="matrix(-0.07, 0.998, -0.998, -0.07, 42.65, 11.206)" fill="#ec8b56"/>
    <path id="Path_20" data-name="Path 20" d="M0,1.39c.319.9.883,1.224,1.994,1.075a12.908,12.908,0,0,0,2.271-.572A5.455,5.455,0,0,0,3.681,0C2.507.511.4,1.2,0,1.39Z" transform="matrix(-0.07, 0.998, -0.998, -0.07, 38.756, 4.532)" fill="#ffd6bb"/>
    <path id="Path_21" data-name="Path 21" d="M0,1.39c.319.9.883,1.224,1.994,1.075a12.894,12.894,0,0,0,2.27-.572A5.451,5.451,0,0,0,3.681,0C2.507.511.4,1.2,0,1.39Z" transform="matrix(-0.07, 0.998, -0.998, -0.07, 45.291, 0.845)" fill="#ffd6bb"/>
    <path id="Path_22" data-name="Path 22" d="M0,1.118A7.939,7.939,0,0,1,2.86.712c1.406.112,3.861,1.78,3.861,1.78S5.6.465,3.934.1A4.653,4.653,0,0,0,0,1.118Z" transform="matrix(-0.07, 0.998, -0.998, -0.07, 48.338, 10.519)" fill="#ec8b56"/>
    <path id="Path_23" data-name="Path 23" d="M5.283.088A29.44,29.44,0,0,1,1.537.043,2.642,2.642,0,0,0,0,.236,5.231,5.231,0,0,0,1.684.761,5.479,5.479,0,0,0,5.283.088Z" transform="matrix(-0.07, 0.998, -0.998, -0.07, 14.378, 15.421)" fill="#ec8b56"/>
    <path id="Path_24" data-name="Path 24" d="M.482,0A1.552,1.552,0,0,0,.5,2.265,18.066,18.066,0,0,0,2.264,4.208a4.318,4.318,0,0,0,1.2-1.269A28.407,28.407,0,0,0,.482,0Z" transform="matrix(-0.07, 0.998, -0.998, -0.07, 59.395, 5.505)" fill="#ffd6bb"/>
  </g>
</svg>
