<svg xmlns="http://www.w3.org/2000/svg" width="32" height="32" viewBox="0 0 32 32">
  <g id="instagram_2_" data-name="instagram (2)" transform="translate(-0.449)">
    <path id="Path_24" data-name="Path 24" d="M32.367,9.408a11.691,11.691,0,0,0-.744-3.882A8.2,8.2,0,0,0,26.94.844,11.727,11.727,0,0,0,23.057.1C21.344.019,20.8,0,16.455,0s-4.889.019-6.6.094A11.7,11.7,0,0,0,5.976.838a7.809,7.809,0,0,0-2.839,1.85A7.878,7.878,0,0,0,1.293,5.52,11.722,11.722,0,0,0,.549,9.4c-.081,1.713-.1,2.257-.1,6.6s.019,4.888.094,6.6a11.69,11.69,0,0,0,.744,3.882A8.2,8.2,0,0,0,5.97,31.162a11.729,11.729,0,0,0,3.883.744c1.707.075,2.251.094,6.6.094s4.889-.019,6.6-.094a11.694,11.694,0,0,0,3.883-.744,8.186,8.186,0,0,0,4.683-4.682,11.73,11.73,0,0,0,.744-3.882c.075-1.707.094-2.25.094-6.6s-.006-4.888-.081-6.6ZM29.485,22.473a8.77,8.77,0,0,1-.55,2.969A5.309,5.309,0,0,1,25.9,28.481a8.805,8.805,0,0,1-2.97.55c-1.688.075-2.194.094-6.465.094s-4.783-.019-6.465-.094a8.77,8.77,0,0,1-2.97-.55,4.925,4.925,0,0,1-1.838-1.194,4.975,4.975,0,0,1-1.194-1.838,8.8,8.8,0,0,1-.55-2.969c-.075-1.688-.094-2.194-.094-6.464s.019-4.782.094-6.464a8.765,8.765,0,0,1,.55-2.969,4.864,4.864,0,0,1,1.2-1.838A4.969,4.969,0,0,1,7.032,3.551,8.811,8.811,0,0,1,10,3c1.688-.075,2.195-.094,6.465-.094s4.783.019,6.465.094a8.774,8.774,0,0,1,2.97.55A4.922,4.922,0,0,1,27.74,4.745a4.974,4.974,0,0,1,1.194,1.838,8.805,8.805,0,0,1,.55,2.969c.075,1.688.094,2.194.094,6.464s-.019,4.77-.094,6.458Zm0,0" transform="translate(0 0)" fill="#fff"/>
    <path id="Path_25" data-name="Path 25" d="M132.662,124.5a7.713,7.713,0,1,0,7.713,7.713A7.715,7.715,0,0,0,132.662,124.5Zm0,12.716a5,5,0,1,1,5-5A5,5,0,0,1,132.662,137.216Zm0,0" transform="translate(-116.207 -116.209)" fill="#fff"/>
    <path id="Path_26" data-name="Path 26" d="M366.54,90.647a2.045,2.045,0,1,1-2.045-2.045,2.045,2.045,0,0,1,2.045,2.045Zm0,0" transform="translate(-339.569 -83.113)" fill="#fff"/>
  </g>
</svg>
