<svg xmlns="http://www.w3.org/2000/svg" width="34.534" height="30.195" viewBox="0 0 34.534 30.195">
  <path id="twitter_2_" data-name="twitter (2)" d="M13.14,30.195c-5.764,0-10.319-1.066-12.5-2.925L.6,27.233.56,27.192A1.954,1.954,0,0,1,.1,25.218l.02-.059a1.811,1.811,0,0,1,1.647-1.2A14.108,14.108,0,0,0,5.7,23.385a7.787,7.787,0,0,1-3.936-4.817,1.767,1.767,0,0,1,.563-1.991,1.614,1.614,0,0,1,.491-.266A11.74,11.74,0,0,1,.582,12.073l-.013-.047-.009-.049a1.82,1.82,0,0,1,.777-1.908,1.6,1.6,0,0,1,.8-.238A9.294,9.294,0,0,1,1.5,7.776a9.044,9.044,0,0,1,.864-5.73l.214-.454A1.206,1.206,0,0,1,3.452.909a1.157,1.157,0,0,1,1.036.354l.39.414A18.16,18.16,0,0,0,15.5,7.835,9.193,9.193,0,0,1,17.779,2.67,7.814,7.814,0,0,1,23.5,0h.014a11.023,11.023,0,0,1,4.729,1.63c1.018-.353,2.243-.9,3.515-1.476a1.54,1.54,0,0,1,1.8.335A1.744,1.744,0,0,1,33.9,2.326q-.139.409-.314.8a1.609,1.609,0,0,1,.468.342,1.916,1.916,0,0,1,.432,1.719l-.016.058A7,7,0,0,1,31.8,9.117C31.6,20.781,23.3,30.195,13.14,30.195ZM2.583,26.075C4.637,27.305,8.551,28.05,13.14,28.05A15.446,15.446,0,0,0,24.862,22.4,20.931,20.931,0,0,0,29.784,8.67V8.611a1.275,1.275,0,0,1,.637-1.118,4.47,4.47,0,0,0,1.861-2.181,1.159,1.159,0,0,1-1.142-.5,1.319,1.319,0,0,1-.009-1.5,7.032,7.032,0,0,0,.451-.756,31.994,31.994,0,0,1-3.047,1.218,1.231,1.231,0,0,1-1-.114,9.508,9.508,0,0,0-4.019-1.523C20.179,2.2,17.463,5.23,17.463,8.9a1.292,1.292,0,0,1-.436.977,1.142,1.142,0,0,1-.99.264C10.533,9,7.271,7.274,3.879,3.664a6.677,6.677,0,0,0-.394,3.7,8,8,0,0,0,1.753,3.6,1.318,1.318,0,0,1,.115,1.5,1.157,1.157,0,0,1-1.321.552,5.288,5.288,0,0,1-1.113-.453A10.54,10.54,0,0,0,6.378,16.82a1.308,1.308,0,0,1,.451,1.461,1.2,1.2,0,0,1-1.215.843,5.115,5.115,0,0,1-1.585-.363,5.475,5.475,0,0,0,4.346,3.261,1.234,1.234,0,0,1,.976,1.048,1.288,1.288,0,0,1-.62,1.316,13.727,13.727,0,0,1-6.147,1.688Zm0,0" transform="translate(0)" fill="#fff"/>
</svg>
